<svg xmlns="http://www.w3.org/2000/svg" viewBox="0 0 102.22 13.22"><g id="Layer_2" data-name="Layer 2"><g id="Layer_1-2" data-name="Layer 1"><path d="M21.38,3h.84l1.16,4.71.11.43h0l.13-.43L25.09,3h.79l1.37,4.71.13.43h0L28.68,3h.84L27.79,9.38H27L25.65,4.74l-.15-.5h0l-.16.5L23.9,9.38h-.79Z"/><path d="M30.62,9.2a2.29,2.29,0,0,1-.84-.88,2.65,2.65,0,0,1,0-2.45A2.29,2.29,0,0,1,30.62,5a2.31,2.31,0,0,1,3.25.88,2.65,2.65,0,0,1,0,2.45,2.37,2.37,0,0,1-3.25.88Zm2-.58a1.52,1.52,0,0,0,.58-.6,1.84,1.84,0,0,0,.22-.92,1.85,1.85,0,0,0-.22-.93,1.54,1.54,0,0,0-1.36-.81,1.58,1.58,0,0,0-.79.21,1.62,1.62,0,0,0-.59.6,2,2,0,0,0-.21.93,2,2,0,0,0,.21.92,1.62,1.62,0,0,0,.59.6,1.58,1.58,0,0,0,.79.21A1.52,1.52,0,0,0,32.61,8.62Z"/><path d="M35,4.81h.72v.67h0a1.68,1.68,0,0,1,1.42-.81,1.53,1.53,0,0,1,.87.24,1.37,1.37,0,0,1,.54.65,1.81,1.81,0,0,1,.64-.65,1.73,1.73,0,0,1,.92-.24,1.46,1.46,0,0,1,1.19.48,2,2,0,0,1,.4,1.3V9.38H41V6.57a1.3,1.3,0,0,0-.26-.92.93.93,0,0,0-.76-.29,1,1,0,0,0-.62.2,1.32,1.32,0,0,0-.44.52,1.72,1.72,0,0,0-.15.72V9.38H38V6.58a1.38,1.38,0,0,0-.26-.93,1,1,0,0,0-.76-.29,1,1,0,0,0-.62.2,1.22,1.22,0,0,0-.43.54,1.58,1.58,0,0,0-.16.72V9.38H35Z"/><path d="M43.66,9.21a2.13,2.13,0,0,1-.81-.87,2.52,2.52,0,0,1-.29-1.24,2.72,2.72,0,0,1,.27-1.21A2.22,2.22,0,0,1,43.6,5a2.08,2.08,0,0,1,1.17-.33,2.2,2.2,0,0,1,1.16.3,1.94,1.94,0,0,1,.75.83A2.6,2.6,0,0,1,47,7a.8.8,0,0,1,0,.23h-3.6a1.68,1.68,0,0,0,.25.87,1.5,1.5,0,0,0,1.29.72A1.49,1.49,0,0,0,46.21,8l.64.31a2.34,2.34,0,0,1-.8.88,2.26,2.26,0,0,1-1.22.32A2.18,2.18,0,0,1,43.66,9.21Zm2.48-2.6A1.36,1.36,0,0,0,46,6a1.14,1.14,0,0,0-.45-.48,1.42,1.42,0,0,0-.77-.2,1.29,1.29,0,0,0-.91.34,1.69,1.69,0,0,0-.49.91Z"/><path d="M47.83,4.81h.73v.67h0a1.65,1.65,0,0,1,.6-.57,1.74,1.74,0,0,1,.88-.24,1.61,1.61,0,0,1,1.26.48,1.86,1.86,0,0,1,.43,1.3V9.38H51V6.57a1.21,1.21,0,0,0-.3-.92,1.27,1.27,0,0,0-1.49-.09,1.28,1.28,0,0,0-.45.55,1.54,1.54,0,0,0-.17.7V9.38h-.76Z"/><path d="M56,3.7h-1.8V3h4.35V3.7H56.8V9.38H56Z"/><path d="M59.54,9.21a2.13,2.13,0,0,1-.81-.87,2.52,2.52,0,0,1-.29-1.24,2.72,2.72,0,0,1,.27-1.21A2.22,2.22,0,0,1,59.48,5a2.11,2.11,0,0,1,1.17-.33,2.2,2.2,0,0,1,1.16.3,2,2,0,0,1,.76.83A2.73,2.73,0,0,1,62.83,7a.8.8,0,0,1,0,.23H59.2a1.78,1.78,0,0,0,.25.87,1.47,1.47,0,0,0,.57.54,1.54,1.54,0,0,0,.72.18A1.49,1.49,0,0,0,62.09,8l.64.31a2.34,2.34,0,0,1-.8.88,2.26,2.26,0,0,1-1.22.32A2.18,2.18,0,0,1,59.54,9.21ZM62,6.61A1.36,1.36,0,0,0,61.86,6a1.14,1.14,0,0,0-.45-.48,1.4,1.4,0,0,0-.77-.2,1.29,1.29,0,0,0-.91.34,1.69,1.69,0,0,0-.49.91Z"/><path d="M64.64,9.2a2.24,2.24,0,0,1-.83-.87,2.63,2.63,0,0,1-.29-1.23,2.71,2.71,0,0,1,.29-1.25A2.24,2.24,0,0,1,64.64,5a2.27,2.27,0,0,1,1.19-.31A2.19,2.19,0,0,1,67.08,5a1.91,1.91,0,0,1,.72.91l-.69.29a1.43,1.43,0,0,0-.51-.64,1.4,1.4,0,0,0-.81-.22,1.34,1.34,0,0,0-.75.22,1.65,1.65,0,0,0-.56.61,1.91,1.91,0,0,0-.21.91,1.87,1.87,0,0,0,.21.9,1.58,1.58,0,0,0,.56.61,1.34,1.34,0,0,0,.75.22,1.49,1.49,0,0,0,.83-.22A1.27,1.27,0,0,0,67.14,8l.68.29a2,2,0,0,1-.74.91,2.21,2.21,0,0,1-1.25.35A2.28,2.28,0,0,1,64.64,9.2Z"/><path d="M68.65,3h.76V4.86l0,.62h0A1.5,1.5,0,0,1,70,4.9a1.82,1.82,0,0,1,.89-.23,1.59,1.59,0,0,1,1.27.49,1.85,1.85,0,0,1,.44,1.29V9.38h-.76V6.57a1.22,1.22,0,0,0-.31-.92,1.17,1.17,0,0,0-.82-.29,1.13,1.13,0,0,0-.66.21,1.6,1.6,0,0,0-.47.56,1.49,1.49,0,0,0-.17.71V9.38h-.76Z"/><path d="M73.69,4.81h.73v.67h0A1.64,1.64,0,0,1,75,4.9a1.68,1.68,0,0,1,.83-.23,1.59,1.59,0,0,1,.88.24,1.41,1.41,0,0,1,.53.65,1.81,1.81,0,0,1,.64-.65,1.74,1.74,0,0,1,.93-.24A1.44,1.44,0,0,1,80,5.15a1.94,1.94,0,0,1,.4,1.3V9.38h-.75V6.57a1.35,1.35,0,0,0-.26-.92,1,1,0,0,0-.77-.29,1.07,1.07,0,0,0-.62.2,1.3,1.3,0,0,0-.43.52,1.58,1.58,0,0,0-.16.72V9.38h-.76V6.58a1.38,1.38,0,0,0-.26-.93,1,1,0,0,0-.76-.29,1.07,1.07,0,0,0-.62.2,1.29,1.29,0,0,0-.43.54,1.58,1.58,0,0,0-.16.72V9.38h-.76Z"/><path d="M82,9.32A1.41,1.41,0,0,1,81.22,8a1.34,1.34,0,0,1,.54-1.13,2.28,2.28,0,0,1,1.38-.41,3,3,0,0,1,.76.09,2,2,0,0,1,.55.21V6.48a1,1,0,0,0-.36-.82,1.32,1.32,0,0,0-.91-.31,1.51,1.51,0,0,0-.7.17A1.2,1.2,0,0,0,82,6l-.57-.43a1.78,1.78,0,0,1,.73-.65,2.41,2.41,0,0,1,1.05-.23,2.06,2.06,0,0,1,1.46.49,1.72,1.72,0,0,1,.53,1.33V9.38h-.72V8.72h0a1.7,1.7,0,0,1-.59.57,1.76,1.76,0,0,1-.89.23A2,2,0,0,1,82,9.32Zm1.68-.67a1.5,1.5,0,0,0,.53-.53,1.39,1.39,0,0,0,.2-.72,1.84,1.84,0,0,0-.53-.23,2.39,2.39,0,0,0-.66-.09,1.44,1.44,0,0,0-1,.26A.82.82,0,0,0,82,8a.76.76,0,0,0,.29.61,1.14,1.14,0,0,0,.73.23A1.39,1.39,0,0,0,83.72,8.65Z"/><path d="M86.23,3H87V7l2.14-2.19h1v0L88.31,6.66l1.84,2.68v0h-.91l-1.47-2.2L87,8V9.38h-.76Z"/><path d="M91.47,9.21a2.13,2.13,0,0,1-.81-.87,2.64,2.64,0,0,1-.29-1.24,2.72,2.72,0,0,1,.27-1.21A2.17,2.17,0,0,1,91.42,5a2,2,0,0,1,1.16-.33,2.18,2.18,0,0,1,1.16.3,2,2,0,0,1,.76.83A2.73,2.73,0,0,1,94.76,7a1.52,1.52,0,0,1,0,.23H91.13a1.78,1.78,0,0,0,.25.87,1.47,1.47,0,0,0,.57.54,1.54,1.54,0,0,0,.72.18A1.49,1.49,0,0,0,94,8l.64.31a2.26,2.26,0,0,1-.8.88,2.42,2.42,0,0,1-2.39,0ZM94,6.61A1.75,1.75,0,0,0,93.8,6a1.24,1.24,0,0,0-.46-.48,1.4,1.4,0,0,0-.77-.2,1.29,1.29,0,0,0-.91.34,1.69,1.69,0,0,0-.49.91Z"/><path d="M95.65,4.81h.72v.74h0a1.25,1.25,0,0,1,.52-.63,1.4,1.4,0,0,1,.8-.25,1.27,1.27,0,0,1,.54.1v.81a1.5,1.5,0,0,0-.64-.14,1,1,0,0,0-.61.19,1.25,1.25,0,0,0-.45.51,1.45,1.45,0,0,0-.16.68V9.38h-.76Z"/><path d="M99.19,9.18a1.9,1.9,0,0,1-.7-.89l.68-.3a1.42,1.42,0,0,0,.51.64,1.37,1.37,0,0,0,.74.22,1.41,1.41,0,0,0,.73-.18.56.56,0,0,0,.06-1,2.06,2.06,0,0,0-.76-.3l-.55-.15a2.07,2.07,0,0,1-.9-.45A1.09,1.09,0,0,1,98.65,6a1.08,1.08,0,0,1,.24-.7,1.56,1.56,0,0,1,.63-.46,2.33,2.33,0,0,1,1.92.1,1.46,1.46,0,0,1,.67.72l-.66.31a1.12,1.12,0,0,0-1.09-.61,1.23,1.23,0,0,0-.65.17.53.53,0,0,0-.29.45.48.48,0,0,0,.2.4,1.55,1.55,0,0,0,.59.26l.66.17a2,2,0,0,1,1,.51,1.07,1.07,0,0,1,.34.81,1.19,1.19,0,0,1-.24.74,1.54,1.54,0,0,1-.65.49,2.46,2.46,0,0,1-.91.17A2.1,2.1,0,0,1,99.19,9.18Z"/><path d="M3.87,13.22H.26A.26.26,0,0,1,0,13V.26A.26.26,0,0,1,.26,0H3.87a.27.27,0,0,1,.27.26V1.39a.27.27,0,0,1-.27.26H1.92a.27.27,0,0,0-.27.27V11.3a.27.27,0,0,0,.27.26h2a.27.27,0,0,1,.27.26V13A.27.27,0,0,1,3.87,13.22Z"/><path d="M11.89,0h3.59a.27.27,0,0,1,.27.26V13a.27.27,0,0,1-.27.26H11.89a.26.26,0,0,1-.26-.26V11.83a.26.26,0,0,1,.26-.26h1.95a.26.26,0,0,0,.26-.26V1.93a.27.27,0,0,0-.26-.27H11.89a.26.26,0,0,1-.26-.26V.26A.26.26,0,0,1,11.89,0Z"/><path d="M10,6.47l-.66-1a.49.49,0,0,1-.05.16h0L8,7.54l2,3a.37.37,0,0,0,.37.22h1.69a.38.38,0,0,0,.39-.39v-.21L10,6.47Z"/><path d="M12.45,2.88a.39.39,0,0,0-.39-.4H10.37a.39.39,0,0,0-.39.4V6.17l2.47,3.67Z"/><path d="M5.84,2.88a.4.4,0,0,0-.4-.4H3.75a.4.4,0,0,0-.39.4v7L5.84,6.22Z"/><path d="M9.1,5.17A.16.16,0,0,0,9,5.09.4.4,0,0,0,8.74,5H7.12a.43.43,0,0,0-.38.23L5.88,6.46,3.36,10.17v.18a.4.4,0,0,0,0,.15.42.42,0,0,0,.39.24h1.7a.44.44,0,0,0,.38-.22L7.93,7.39h0L9.12,5.58A.4.4,0,0,0,9.1,5.17Z"/></g></g></svg>