<?xml version="1.0" encoding="UTF-8" standalone="no" ?>
<!DOCTYPE svg PUBLIC "-//W3C//DTD SVG 1.1//EN" "http://www.w3.org/Graphics/SVG/1.1/DTD/svg11.dtd">
<svg xmlns="http://www.w3.org/2000/svg" xmlns:xlink="http://www.w3.org/1999/xlink" version="1.1" width="60" height="100" viewBox="-19.44 -32.76 60 100" xml:space="preserve">
<desc>Created with Fabric.js 4.2.0</desc>
<defs>
</defs>
<rect x="0" y="0" width="100%" height="100%" fill="transparent"></rect>
<g transform="matrix(1 0 0 1 30 50)" id="916948d1-c0b2-4c24-a5af-7d9aad788af8"  >
<rect style="stroke: none; stroke-width: 1; stroke-dasharray: none; stroke-linecap: butt; stroke-dashoffset: 0; stroke-linejoin: miter; stroke-miterlimit: 4; fill: rgb(255,255,255); fill-rule: nonzero; opacity: 1;" vector-effect="non-scaling-stroke"  x="-30" y="-50" rx="0" ry="0" width="60" height="100" />
</g>
<g transform="matrix(Infinity NaN NaN Infinity 0 0)" id="9d7c6e9a-a013-4592-ae44-8b0f2984b0ac"  >
</g>
<g transform="matrix(1.21 0 0 1.21 9.33 8.67)"  >
<g style="" vector-effect="non-scaling-stroke"   >
		<g transform="matrix(1 0 0 1 0 0)"  >
<path style="stroke: none; stroke-width: 1; stroke-dasharray: none; stroke-linecap: butt; stroke-dashoffset: 0; stroke-linejoin: miter; stroke-miterlimit: 4; fill: none; fill-rule: evenodd; opacity: 1;" vector-effect="non-scaling-stroke"  transform=" translate(-15, -13)" d="M -1 -3 L 31 -3 L 31 29 L -1 29 z" stroke-linecap="round" />
</g>
		<g transform="matrix(1 0 0 1 5.67 -5.5)"  >
<path style="stroke: none; stroke-width: 1; stroke-dasharray: none; stroke-linecap: butt; stroke-dashoffset: 0; stroke-linejoin: miter; stroke-miterlimit: 4; fill: rgb(251,188,4); fill-rule: evenodd; opacity: 1;" vector-effect="non-scaling-stroke"  transform=" translate(-20.33, -7)" d="M 22.8333333 7 C 22.8333333 8.379999999999999 21.7133333 9.5 20.3333333 9.5 C 18.9533333 9.5 17.8333333 8.379999999999999 17.8333333 7 C 17.8333333 5.620000000000001 18.9533333 4.5 20.3333333 4.5 C 21.7133333 4.5 22.8333333 5.62 22.8333333 7" stroke-linecap="round" />
</g>
		<g transform="matrix(1 0 0 1 -5.67 -5.5)"  >
<path style="stroke: none; stroke-width: 1; stroke-dasharray: none; stroke-linecap: butt; stroke-dashoffset: 0; stroke-linejoin: miter; stroke-miterlimit: 4; fill: rgb(66,133,244); fill-rule: evenodd; opacity: 1;" vector-effect="non-scaling-stroke"  transform=" translate(-9, -7)" d="M 6.5 7 C 6.5 8.379999999999999 7.62 9.5 9 9.5 C 10.379999999999999 9.5 11.5 8.379999999999999 11.5 7 C 11.5 5.620000000000001 10.379999999999999 4.5 9 4.5 C 7.620000000000001 4.5 6.5 5.62 6.5 7" stroke-linecap="round" />
</g>
		<g transform="matrix(1 0 0 1 0 -1)"  >
<path style="stroke: none; stroke-width: 1; stroke-dasharray: none; stroke-linecap: butt; stroke-dashoffset: 0; stroke-linejoin: miter; stroke-miterlimit: 4; fill: rgb(234,67,53); fill-rule: evenodd; opacity: 1;" vector-effect="non-scaling-stroke"  transform=" translate(-14.67, -11.5)" d="M 17.1666667 11.5 C 17.1666667 12.879999999999999 16.0466667 14 14.6666667 14 C 13.286666700000001 14 12.1666667 12.879999999999999 12.1666667 11.5 C 12.1666667 10.120000000000001 13.286666700000001 9 14.6666667 9 C 16.0466667 9 17.1666667 10.120000000000001 17.1666667 11.5" stroke-linecap="round" />
</g>
		<g transform="matrix(1 0 0 1 0 -10)"  >
<path style="stroke: none; stroke-width: 1; stroke-dasharray: none; stroke-linecap: butt; stroke-dashoffset: 0; stroke-linejoin: miter; stroke-miterlimit: 4; fill: rgb(52,168,83); fill-rule: evenodd; opacity: 1;" vector-effect="non-scaling-stroke"  transform=" translate(-14.67, -2.5)" d="M 17.1666667 2.5 C 17.1666667 3.88 16.0466667 5 14.6666667 5 C 13.286666700000001 5 12.1666667 3.88 12.1666667 2.5 C 12.1666667 1.12 13.286666700000001 0 14.6666667 0 C 16.0466667 0 17.1666667 1.12 17.1666667 2.5" stroke-linecap="round" />
</g>
		<g transform="matrix(1 0 0 1 0 8)"  >
<path style="stroke: none; stroke-width: 1; stroke-dasharray: none; stroke-linecap: butt; stroke-dashoffset: 0; stroke-linejoin: miter; stroke-miterlimit: 4; fill: rgb(234,67,53); fill-rule: nonzero; opacity: 1;" vector-effect="non-scaling-stroke"  transform=" translate(-14.67, -20.5)" d="M 14.67 16 C 12.6433333 16 11 17.565 11 19.495 L 11 24.495 C 12.1633333 24.8216667 13.3916667 25.0016667 14.6666667 25.0016667 C 15.9416667 25.0016667 17.17 24.8233333 18.3333333 24.495 L 18.3333333 19.3883333 C 18.2733333 17.5083333 16.6583333 16 14.67 16 z" stroke-linecap="round" />
</g>
		<g transform="matrix(1 0 0 1 -9.17 3.33)"  >
<path style="stroke: none; stroke-width: 1; stroke-dasharray: none; stroke-linecap: butt; stroke-dashoffset: 0; stroke-linejoin: miter; stroke-miterlimit: 4; fill: rgb(66,133,244); fill-rule: nonzero; opacity: 1;" vector-effect="non-scaling-stroke"  transform=" translate(-5.5, -15.83)" d="M 9.5 14.425 L 2.86166667 7.741666670000001 L 2.765 7.6450000000000005 C 2.14666667 7.023333330000001 1.14666667 7.00666667 0.5100000000000002 7.608333330000001 C -0.09499999999999975 8.176666670000001 -0.16999999999999982 9.11166667 0.3333333300000002 9.77 L 2.0033333300000002 11.9533333 L 3.5733333300000005 14.005 C 4.455 15.1566667 4.93166667 16.5666667 4.93166667 18.016666700000002 C 4.93166667 19.873333300000002 5.800000000000001 21.641666700000002 7.315 22.711666700000002 C 8.425 23.496666700000002 9.666666670000001 24.105000000000004 11 24.500000000000004 L 11 19.368333300000003 L 11 18.066666700000003 C 11 16.701666700000004 10.46 15.393333300000002 9.5 14.425000000000002 z" stroke-linecap="round" />
</g>
		<g transform="matrix(1 0 0 1 9.17 3.33)"  >
<path style="stroke: none; stroke-width: 1; stroke-dasharray: none; stroke-linecap: butt; stroke-dashoffset: 0; stroke-linejoin: miter; stroke-miterlimit: 4; fill: rgb(251,188,4); fill-rule: nonzero; opacity: 1;" vector-effect="non-scaling-stroke"  transform=" translate(-23.83, -15.83)" d="M 28.825 7.60833333 C 28.1866667 7.0066666699999995 27.1866667 7.02333333 26.57 7.645 L 21.016666700000002 13.235 L 19.833333300000003 14.4266667 C 18.871666700000002 15.395 18.333333300000003 16.7033333 18.333333300000003 18.0683333 L 18.333333300000003 19.259999999999998 C 18.335000000000004 19.2966667 18.338333300000002 19.3316667 18.338333300000002 19.3683333 L 18.338333300000002 24.5 C 19.67 24.105 20.910000000000004 23.4966667 22.018333300000002 22.7116667 C 23.531666700000002 21.6416667 24.400000000000002 19.8733333 24.400000000000002 18.0166667 C 24.400000000000002 16.564999999999998 24.8783333 15.154999999999998 25.758333300000004 14.003333299999998 L 26.948333300000005 12.448333299999998 L 29.000000000000007 9.769999999999998 C 29.50333330000001 9.111666669999998 29.428333300000006 8.176666669999998 28.825000000000006 7.608333329999998 z" stroke-linecap="round" />
</g>
</g>
</g>
</svg>