<svg id="Layer_1" data-name="Layer 1" xmlns="http://www.w3.org/2000/svg" viewBox="0 0 112 94"><defs><style>.cls-1{fill:#ffcc29;}</style></defs><path d="M70.5.41l0,0c.33,0,.64.14,1,.15a1.21,1.21,0,0,1,.67.13.78.78,0,0,0,.22,0,1,1,0,0,1,.44.1.56.56,0,0,0,.23,0c.13,0,.26,0,.35.11a.14.14,0,0,0,.1,0,2.2,2.2,0,0,1,.67.17,3.2,3.2,0,0,1,.52.18c.23.08.44.2.68.28a5.31,5.31,0,0,1,.64.3,8,8,0,0,1,.76.41c.3.2.62.35.91.57s.45.33.68.49.32.26.48.39.33.25.48.39a7.87,7.87,0,0,1,.79.72c.18.25.44.42.59.67s.53.55.68.91c.21.14.28.39.43.57a6.17,6.17,0,0,1,.42.7,4.71,4.71,0,0,1,.35.67,1.6,1.6,0,0,1,.15.35c0,.12,0,.19-.13.13a1.93,1.93,0,0,0-1-.13,10.76,10.76,0,0,0-1.27,0A.34.34,0,0,1,80,8.6a10.56,10.56,0,0,0-.62-.87c-.15-.19-.29-.38-.45-.57a8.27,8.27,0,0,0-.71-.74c-.12-.1-.22-.22-.33-.33s-.51-.4-.75-.61-.72-.51-1.06-.8a1.65,1.65,0,0,0-.32-.18c-.27-.13-.52-.28-.78-.42s-.31-.11-.45-.19a6.41,6.41,0,0,0-.86-.34c-.3-.12-.63-.18-.93-.29s-.56-.1-.83-.18a4.17,4.17,0,0,0-.6-.1c-.16,0-.34,0-.47-.12s-.12,0-.19,0c-.76,0-1.53,0-2.29,0-.12,0-.24,0-.33.09a.21.21,0,0,1-.12,0,4.32,4.32,0,0,0-1.19.16c-.25,0-.51.13-.76.2a4.23,4.23,0,0,0-.78.27c-.16.08-.36.08-.5.21s-.26.1-.39.16-.49.26-.75.36a3.64,3.64,0,0,0-.56.34l-.17.11c-.32.18-.59.42-.88.62-.13.09-.25.21-.4.3a2,2,0,0,0-.35.3l-.65.65a6.27,6.27,0,0,1-.49.53.17.17,0,0,0-.06.06c0,.28-.25.27-.46.25-.55,0-1.1,0-1.65,0a1.29,1.29,0,0,0-.58.07c-.09,0-.25.08-.32,0s0-.18.09-.28c.12-.28.37-.47.48-.74.05-.11.2-.11.19-.24.26-.22.39-.56.68-.76a2.73,2.73,0,0,0,.3-.36A10.5,10.5,0,0,1,59.88,4c.44-.37.89-.72,1.36-1.05a10.11,10.11,0,0,0,.87-.58c.06,0,.17,0,.24-.09.3-.16.59-.33.87-.5.12-.07.25-.07.38-.13.3-.13.62-.25.93-.37s.66-.17,1-.29A3.8,3.8,0,0,1,66.75.73c.12,0,.16-.11.27-.11L67.5.57a.58.58,0,0,0,.34-.06.59.59,0,0,1,.35,0A.57.57,0,0,0,68.5.41Z"/><path d="M93.68,93.59c0-.12-.15-.14-.2-.24s-.06-.43.18-.46a1,1,0,0,1,.63.07.45.45,0,0,0,.6-.17,2,2,0,0,0,.31-.73.24.24,0,0,1,.06-.11.37.37,0,0,0,.06-.43,2.71,2.71,0,0,1-.22-.6,3,3,0,0,1-.23-.55,1.81,1.81,0,0,0-.22-.52,2.62,2.62,0,0,1-.19-.49c-.13-.26-.21-.53-.32-.79s-.21-.52-.32-.77-.19-.39-.28-.59a.37.37,0,0,0-.31-.18c-.06,0-.14,0-.13-.1s.08-.09.14-.1H95c.08,0,.18,0,.19.11S95.08,87,95,87a.31.31,0,0,0-.25.32,1.85,1.85,0,0,0,.18.77,4.9,4.9,0,0,0,.26.67,2.48,2.48,0,0,0,.25.58c.09.11,0,.29.16.38,0,.2.17.31.19.49s.09.09.13,0a1.25,1.25,0,0,0,.19-.34,1.27,1.27,0,0,1,.23-.55,1.36,1.36,0,0,0,.14-.4c.06-.22.19-.41.24-.64a2.19,2.19,0,0,1,.2-.63.51.51,0,0,0-.36-.68l-.1,0s0,0,0-.06a.08.08,0,0,1,0-.09.53.53,0,0,1,.12,0c.43,0,.85,0,1.27,0l.11,0s.08.05.07.1A.1.1,0,0,1,98,87c-.36.08-.52.35-.68.65s-.16.39-.25.58-.22.57-.34.85-.17.38-.23.58-.26.58-.37.87a3.62,3.62,0,0,1-.4,1,.64.64,0,0,0-.06.18,3.84,3.84,0,0,1-.41.9,3,3,0,0,0-.15.36,1.1,1.1,0,0,1-.54.58s0,0,0,.07Z"/><path d="M69.9,44.64H32.41c-.47,0-.47,0-.47-.48V42.45c0-.4-.06-.36.38-.37h7.56c.33,0,.4-.06.41-.41V27.92c0-.6,0-.54-.56-.54H34.29c-.19,0-.23.06-.24.25s0,.2,0,.3v6.28c0,.52,0,.52-.5.52H32.16c-.19,0-.2,0-.22-.19V25.4c0-.46,0-.39.39-.39h75.1c.34,0,.39-.1.39.38v9c0,.28,0,.3-.29.3H106c-.25,0-.26,0-.27-.26a1.62,1.62,0,0,1,0-.22V27.78c0-.41,0-.4-.39-.4h-4.66c-.33,0-.33,0-.33.33,0,4.64,0,9.28,0,13.92a.4.4,0,0,0,0,.11c0,.17,0,.19.2.21H102c.09,0,.18,0,.25.07s.2.06.31.06h5.09c.28,0,.29,0,.29.28v2c0,.27,0,.27-.27.28H69.9Zm-16.09-10v7.1c0,.19,0,.2.2.2h1a.75.75,0,0,1,.51.1.31.31,0,0,0,.19,0h1a.28.28,0,0,0,.2,0A.39.39,0,0,1,57.3,42a4.33,4.33,0,0,0,1.38-.14l.66-.27a4.53,4.53,0,0,0,.88-.5c.18-.13.35-.27.52-.42s.34-.32.5-.49a2.81,2.81,0,0,0,.56-.67c.14-.29.34-.54.46-.85a3.09,3.09,0,0,0,.25-.85s0-.11,0-.15.09-.19.1-.29c0-.42,0-.83,0-1.25a.45.45,0,0,1,0-.26.6.6,0,0,0,.08-.39V27.78c0-.39,0-.4-.41-.4H54.2c-.41,0-.39-.06-.39.37Zm-11.21,0v7c0,.32,0,.34.33.34h8.53c.16,0,.22-.08.23-.24V27.61c0-.15-.09-.21-.22-.23H46.9s-.1,0-.1.07a2.57,2.57,0,0,0,0,.83,1.15,1.15,0,0,1,.07.36v5.71c0,.3-.08.37-.37.37h-1.6c-.4,0-.4,0-.4-.4V27.64c0-.25,0-.26-.25-.26H43c-.44,0-.44,0-.44.45Zm55.58,0V27.81c0-.1,0-.2,0-.3a.12.12,0,0,0-.13-.13H94.57c-.32,0-.37,0-.38.37v6.49a2.44,2.44,0,0,1,0,.27c0,.19-.05.21-.23.22H92.46c-.43,0-.43,0-.43-.43V27.89a2.18,2.18,0,0,0,0-.25c0-.22,0-.26-.27-.26H89.5c-.13,0-.19,0-.19.17s0,.27,0,.4v13.7c0,.3,0,.3.3.3h8.23c.41,0,.35,0,.35-.33Zm-16.79-.08V27.68c0-.29,0-.3-.31-.3H77.32c-.46,0-.41,0-.41.41V36.2a1.37,1.37,0,0,0,.09.72.28.28,0,0,1,0,.16,2.28,2.28,0,0,0,.23,1.09,6,6,0,0,0,.42.94,7.91,7.91,0,0,0,.62.93,4.55,4.55,0,0,0,1.11,1,5.11,5.11,0,0,0,.83.45,2.08,2.08,0,0,1,.4.14.62.62,0,0,0,.43.12c.34,0,.34,0,.34-.32Zm5.58.07v-7c0-.4,0-.34-.33-.34H84.09c-.5,0-.43,0-.43.43q0,6.89,0,13.75v.22c0,.12,0,.16.16.16h3c.18,0,.19,0,.2-.2a1.61,1.61,0,0,0,0-.22Z"/><path d="M38.74,48.85a.44.44,0,0,1,.26.29,4.79,4.79,0,0,0,.23.59,4.66,4.66,0,0,1,.34.83.79.79,0,0,1,.08.23,3,3,0,0,0,.24.59c.06.15.15.32.2.48a9.9,9.9,0,0,1,.38,1c0,.17.16.32.21.49l.1.3a2.53,2.53,0,0,1,.19.45c.06.23.2.43.26.66a1.5,1.5,0,0,0,.18.41,8.93,8.93,0,0,1,.37.9,3.17,3.17,0,0,1,.36,1c.23.23.23.58.39.86a1.51,1.51,0,0,1,.2.54c0,.16.13.28.18.43s.25.6.36.9a3.28,3.28,0,0,1,.34.92c.18.12.13.34.26.5a1.37,1.37,0,0,1,.18.49c.06.21.19.37.24.58s.29.66.4,1c0,.15.14.29.18.45a3.08,3.08,0,0,0,.27.65c.09.19.07.42.25.57s.07.2.1.3.18.4.24.61a5,5,0,0,0,.21.48c.11.3.26.59.35.9s.2.35.24.55.07.2.1.3.13.28.18.43a4.54,4.54,0,0,0,.41.93,4.69,4.69,0,0,0,.38.74,2.09,2.09,0,0,1,.19.4c.1.2.22.38.33.56a5,5,0,0,0,.43.6,4.45,4.45,0,0,0,.71.66,2.59,2.59,0,0,1,.39.25c.1.1.27.1.4.14a2.53,2.53,0,0,0,.89.22c.12,0,.25,0,.35-.11a.11.11,0,0,1,.07,0,2.63,2.63,0,0,0,.78-.15,1.89,1.89,0,0,0,.59-.28c.09-.07.19-.06.27-.11a2.71,2.71,0,0,0,1.11-1.09c0-.08.12-.11.16-.2a5,5,0,0,0,.34-1.53c0-1.46,0-2.93,0-4.39,0-.22,0-.45,0-.67a.19.19,0,0,0,0-.08c-.15-.33-.16-.71-.32-1a6.94,6.94,0,0,0-.29-.73c-.08-.14-.1-.32-.24-.43s-.09-.2-.14-.3a4.89,4.89,0,0,1-.35-.73,3.09,3.09,0,0,0-.23-.44,6.3,6.3,0,0,1-.34-.69c-.06-.17-.17-.3-.24-.46a7.71,7.71,0,0,0-.39-.82c-.16-.28-.24-.6-.41-.87a5.41,5.41,0,0,1-.33-.63c-.15-.3-.3-.6-.44-.9s-.33-.65-.48-1a2.18,2.18,0,0,0-.38-.66c-.1-.1-.1-.27-.19-.4a1.84,1.84,0,0,0-.17-.25,1.76,1.76,0,0,1-.23-.37c-.13-.24-.35-.43-.48-.65a7.34,7.34,0,0,0-.73-.83,1.57,1.57,0,0,0-.61-.44c-.15-.07-.27-.16-.41-.23-.31-.15-.63-.25-.94-.37a.71.71,0,0,0-.21,0c-.07,0-.14,0-.19,0-.26-.19-.56-.12-.85-.15a.42.42,0,0,1-.19,0,.15.15,0,0,1-.1-.12v-.46c0-.08.08-.1.14-.1a4.57,4.57,0,0,1,1.28.06,1,1,0,0,0,.3,0h6.9a.56.56,0,0,0,.34-.06.26.26,0,0,1,.19,0H55c.21,0,.21,0,.22.22,0,.5,0,.5-.49.5l-.37,0c-.1,0-.2,0-.28.09s-.15.05-.23.06a1.22,1.22,0,0,0-.83.46,1.14,1.14,0,0,0-.21.53.71.71,0,0,0,.07.47s.06.07.06.11a1.83,1.83,0,0,0,.18.73,2.54,2.54,0,0,0,.31.67,2.35,2.35,0,0,1,.21.42c.16.36.37.69.53,1.06s.33.65.5,1,.23.53.38.78.25.5.39.75.22.5.37.73.22.55.4.8a1.33,1.33,0,0,1,.17.36c.1.24.23.47.34.71s.17.46.29.67.17.32.26.48.12.1.21,0a.84.84,0,0,0,.23-.31c.21-.36.45-.7.66-1l.36-.59a6.66,6.66,0,0,0,.52-.85,3.53,3.53,0,0,1,.35-.59,5.59,5.59,0,0,0,.41-.66,2.66,2.66,0,0,1,.34-.53,1.2,1.2,0,0,0,.15-.3c.13-.28.29-.54.44-.81a2.59,2.59,0,0,1,.36-.59c.06-.07.05-.19.1-.28s.23-.47.38-.68.06-.24.12-.35a4.83,4.83,0,0,0,.33-1,3.9,3.9,0,0,0,0-1.08.8.8,0,0,0-.27-.52,2,2,0,0,0-.66-.5.66.66,0,0,0-.2-.06s-.09,0-.13,0a2.06,2.06,0,0,0-1.07-.16h-.21c-.19,0-.26-.07-.28-.25a.86.86,0,0,1,0-.16c0-.27.05-.31.32-.31h.82a.65.65,0,0,1,.36.07.48.48,0,0,0,.24,0h6.44a.5.5,0,0,0,.34-.07.19.19,0,0,1,.13,0h.89c.12,0,.16,0,.18.16.06.52,0,.56-.5.56l-.57,0a.54.54,0,0,0-.3.1,1.77,1.77,0,0,1-.51.15,5.55,5.55,0,0,0-.56.24,4.36,4.36,0,0,0-1.11.73,4.88,4.88,0,0,0-.91.85c-.09.11-.2.2-.3.3a8.94,8.94,0,0,0-1.12,1.34c-.2.3-.42.58-.62.88s-.31.48-.49.7a2,2,0,0,0-.32.53c-.16.32-.39.61-.55.93s-.31.49-.43.76-.25.37-.36.57-.33.52-.46.79-.26.4-.36.62-.16.24-.22.38-.3.43-.36.69a1,1,0,0,1-.09.13,3.55,3.55,0,0,0-.51,1.18c0,.06,0,.11-.06.15a.32.32,0,0,0-.08.25c0,.3-.07.61-.07.91,0,1.68,0,3.36,0,5a4.3,4.3,0,0,0,.08.88,3.19,3.19,0,0,0,.58,1.35,2.68,2.68,0,0,0,.49.52,2.63,2.63,0,0,0,.58.38c.19.07.36.18.56.24a5.08,5.08,0,0,1,.51.17,2.13,2.13,0,0,0,.6.12c.11,0,.21,0,.29.1a.16.16,0,0,0,.24,0,.24.24,0,0,1,.24-.09c.27,0,.49-.18.75-.18.09-.16.3-.12.41-.26s.18-.05.25-.1a3.78,3.78,0,0,0,.72-.59A2.37,2.37,0,0,0,65,70.9c.06-.16.19-.27.25-.43a2.8,2.8,0,0,1,.28-.61,3.2,3.2,0,0,1,.37-.71c.09-.11.09-.27.15-.4a6.39,6.39,0,0,0,.35-.81c0-.15.12-.29.18-.43.15-.3.26-.6.39-.9a3.76,3.76,0,0,0,.27-.62c.06-.21.17-.39.24-.59s.13-.31.2-.47c.13-.32.25-.66.4-1a3.18,3.18,0,0,1,.36-.8,2.41,2.41,0,0,0,.18-.47c.1-.3.23-.59.34-.88a4.76,4.76,0,0,1,.31-.77c.15-.28.24-.57.36-.85s.27-.59.39-.9.17-.53.29-.78.18-.52.31-.74A8.3,8.3,0,0,1,71,56.9c.09-.11.09-.3.17-.44.19-.32.26-.68.42-1a4.43,4.43,0,0,0,.38-.93c0-.15.15-.3.19-.46s.19-.39.25-.6a2.63,2.63,0,0,1,.17-.42,4.43,4.43,0,0,0,.26-.69A1.87,1.87,0,0,1,73,52c.11-.19.11-.42.25-.61s0-.33,0-.49-.06-.1-.08-.15,0-.13.07-.17a2.67,2.67,0,0,1,.34-.14,2.41,2.41,0,0,0,.78-.4,3.71,3.71,0,0,1,.41-.28,6.38,6.38,0,0,0,.92-.88c.09-.1.1-.08.19,0a1.11,1.11,0,0,1,.24.53c.07.22.2.4.27.62a.5.5,0,0,1,0,.13c0,.22.19.37.23.58a3.75,3.75,0,0,0,.25.63c.12.3.26.58.36.88s.16.39.23.59.15.3.21.47c.11.34.31.65.39,1a1.17,1.17,0,0,0,.16.36c.11.19.1.43.26.6a.62.62,0,0,1,.11.32c.1.35.27.66.39,1a7.39,7.39,0,0,0,.36.88,3.39,3.39,0,0,1,.24.55,2.07,2.07,0,0,0,.23.56c.07.09.07.22.12.33a7.19,7.19,0,0,0,.4,1,8.87,8.87,0,0,0,.39.89,1.6,1.6,0,0,1,.12.35c.13.32.23.65.36,1a3.13,3.13,0,0,0,.25.48,2.15,2.15,0,0,1,.19.5c.07.21.18.42.25.63s.24.65.38,1c.07.15.14.29.2.45a3.75,3.75,0,0,0,.25.63c.1.19.1.42.24.59a1.36,1.36,0,0,1,.14.4c.09.31.28.58.37.9s.25.54.34.83.32.67.42,1a2.91,2.91,0,0,0,.18.35c.12.23.22.48.37.71s.36.57.56.85a5.39,5.39,0,0,0,.5.56,3.63,3.63,0,0,0,.68.48c.3.2.66.23,1,.4a.19.19,0,0,0,.1,0c.37,0,.72.14,1.09.13.11,0,.18,0,.18.18,0,.46.08.46-.43.45-2.92,0-5.84,0-8.77,0-.5,0-1,0-1.51,0s-.39,0-.38-.39c0-.22,0-.22.22-.24a5,5,0,0,1,.85-.13c.27-.2.63-.2.92-.4a2.38,2.38,0,0,0,.75-.66,1,1,0,0,0,.23-.7,2.67,2.67,0,0,1,0-.4.32.32,0,0,0,0-.14,9.92,9.92,0,0,1-.29-1,4.49,4.49,0,0,0-.23-.61,2.11,2.11,0,0,1-.19-.46c-.1-.38-.29-.73-.41-1.1a3.32,3.32,0,0,0-.22-.55c-.18-.32-.2-.68-.4-1a1.14,1.14,0,0,1-.15-.4c-.07-.31-.25-.57-.33-.88,0-.16-.14-.31-.18-.47a.26.26,0,0,0-.29-.2H69.91c-.39,0-.41,0-.5.41,0,.21-.18.4-.23.61,0,0-.07.09-.07.15,0,.24-.18.42-.23.65a.93.93,0,0,0,0,.13c0,.27-.2.47-.25.72a.47.47,0,0,0-.06.15,3.85,3.85,0,0,1-.27.74s0,0,0,.08c0,.29-.18.52-.25.79,0,.09,0,.18-.07.26-.12.34-.16.69-.25,1a3,3,0,0,0-.07.59.63.63,0,0,1-.07.26,1.08,1.08,0,0,0,0,.79.4.4,0,0,1,.07.2.44.44,0,0,0,.14.36,5.33,5.33,0,0,0,.49.46,4.05,4.05,0,0,0,.92.43,2.19,2.19,0,0,0,.27,0c.1,0,.21,0,.29.1s.1,0,.15,0l.65,0a.85.85,0,0,1,.41.07,1.33,1.33,0,0,0,.45,0c.29,0,.3,0,.3.28v0c0,.31,0,.32-.31.32-.49,0-1,0-1.46,0-2.11,0-4.22,0-6.34,0-.64,0-1.28,0-1.92,0-3.09-.07-6.19,0-9.28,0-.73,0-1.46,0-2.19,0-2.52-.07-5,0-7.56,0-.48,0-1,0-1.46,0s-.4,0-.39-.4c0-.2,0-.22.19-.23a5.42,5.42,0,0,1,.9-.13c.27-.18.63-.18.9-.4.11-.08.26-.12.36-.21a2.4,2.4,0,0,0,.5-.63c.2-.36.07-.73.11-1.09-.2-.34-.12-.75-.28-1.1s-.21-.63-.33-.93a3.3,3.3,0,0,1-.19-.43,6.44,6.44,0,0,0-.24-.61c-.09-.17-.1-.38-.23-.53s0-.29-.16-.39c-.05-.36-.3-.66-.34-1,0-.13-.13-.19-.18-.32s-.15-.37-.21-.56-.2-.35-.22-.55a.2.2,0,0,0-.22-.19h-8.4c-.11,0-.16.06-.23.16s-.1.4-.22.56a.24.24,0,0,0,0,.13c0,.24-.18.42-.23.65a2.81,2.81,0,0,0-.08.31,2,2,0,0,1-.19.46c-.11.27-.2.54-.3.81s-.17.6-.29.87-.09.51-.24.73a.71.71,0,0,0-.05.29c0,.1,0,.2-.1.27a.15.15,0,0,0,0,.1,6.48,6.48,0,0,0-.16,1.16.37.37,0,0,1-.08.3.26.26,0,0,0,0,.35.28.28,0,0,1,.07.19,1.25,1.25,0,0,0,.64,1,2.32,2.32,0,0,0,.74.36,2.77,2.77,0,0,0,.57.13h.06c.28.23.61.11.92.16A1.18,1.18,0,0,1,34,73a1.31,1.31,0,0,0,.45,0,.33.33,0,0,1,.32.51c0,.1-.15.12-.25.12H33.31l-.41,0H26.06c-.49,0-1,0-1.47,0-.32,0-.32,0-.32-.33v-.19s0-.09.06-.09.25-.11.4-.12a1.9,1.9,0,0,0,.65-.14,3.86,3.86,0,0,1,.58-.17,3.65,3.65,0,0,0,.85-.39,3.14,3.14,0,0,0,.71-.55.49.49,0,0,0,.1-.15A2.87,2.87,0,0,1,28,71c.05-.06,0-.14.07-.2q.24-.47.45-.93a2.69,2.69,0,0,0,.19-.38,8.64,8.64,0,0,0,.38-.88c0-.07.1-.11.12-.17a7.19,7.19,0,0,1,.32-.76c.1-.19.17-.4.26-.59a4.65,4.65,0,0,0,.33-.8c.05-.19.17-.35.23-.53s.17-.4.25-.61a1.63,1.63,0,0,1,.24-.54c.09-.11.08-.27.15-.4a3.31,3.31,0,0,0,.31-.81c0-.15.14-.24.18-.38a4.22,4.22,0,0,1,.35-.85c.1-.2.14-.42.25-.6A2.28,2.28,0,0,0,32.3,61a8.25,8.25,0,0,1,.37-.86,4,4,0,0,1,.41-1c.08-.11.06-.25.11-.38l.4-.94a1.78,1.78,0,0,1,.26-.56A1.06,1.06,0,0,0,34,57c0-.2.16-.37.22-.56a5.45,5.45,0,0,1,.32-.75c.14-.34.25-.68.41-1a3,3,0,0,0,.19-.45,3.45,3.45,0,0,1,.25-.63c.12-.18.08-.42.27-.56,0-.16.13-.27.16-.41.11-.38.31-.73.44-1.1a1,1,0,0,0,0-.69c0-.12,0-.16.07-.2s.13-.09.2-.09a1.28,1.28,0,0,0,.57-.25A6.12,6.12,0,0,0,38.74,48.85ZM36.8,53.34l0,0a4.16,4.16,0,0,1-.23.62,1.72,1.72,0,0,1-.16.45,2.07,2.07,0,0,0-.23.56c-.06.21-.18.38-.24.58s0,.25-.12.34-.09.36-.25.48a5.09,5.09,0,0,1-.36,1c-.05.14,0,.31-.14.42a2.49,2.49,0,0,0-.24.56,4.32,4.32,0,0,0-.26.68c-.05.17-.15.3-.19.45-.13.46-.38.86-.49,1.32l0,0a10,10,0,0,0-.41,1c0,.08,0,.15-.11.21a.3.3,0,0,0,0,.33c0,.1.15.06.24.07h6.9c.19,0,.21-.06.14-.24a6.78,6.78,0,0,1-.39-1,.42.42,0,0,0,0-.1,2.19,2.19,0,0,1-.23-.49,3.08,3.08,0,0,1-.27-.65c-.06-.2-.19-.35-.24-.56a1.46,1.46,0,0,0-.17-.51,3.38,3.38,0,0,1-.36-.8,10,10,0,0,1-.42-1c0-.15-.14-.29-.18-.43-.11-.36-.3-.69-.42-1,0-.15-.15-.27-.18-.41s-.2-.39-.25-.62a.63.63,0,0,0-.12-.32,1.27,1.27,0,0,1-.23-.55A.67.67,0,0,0,36.8,53.34Zm37-.06c0,.24-.22.38-.21.6a.12.12,0,0,1,0,.09,1.1,1.1,0,0,0-.21.5,6.44,6.44,0,0,0-.24.61c0,.18-.19.34-.23.53-.08.34-.28.64-.38,1s-.17.46-.25.69l-.31.78c-.06.13-.08.28-.15.4a3,3,0,0,0-.29.7c-.1.28-.22.56-.33.84a1.29,1.29,0,0,1-.14.36,1.43,1.43,0,0,0-.22.53c-.08.2-.18.38-.24.58s-.23.49-.28.76,0,.2.16.21h6.92c.13,0,.17-.06.17-.18s-.2-.43-.25-.67,0-.23-.09-.3-.17-.4-.27-.6a2.43,2.43,0,0,1-.24-.6,3.43,3.43,0,0,0-.23-.52l-.18-.47c-.13-.36-.3-.7-.43-1.05a2,2,0,0,0-.15-.39,3.49,3.49,0,0,1-.29-.66c-.12-.26-.22-.53-.32-.8a1.44,1.44,0,0,0-.17-.44,1.47,1.47,0,0,1-.22-.5,5.11,5.11,0,0,1-.27-.64,4.68,4.68,0,0,0-.23-.56A1.72,1.72,0,0,0,73.8,53.28Z"/><path d="M13.65,74.27c-.75,0-1.48,0-2.21,0a.28.28,0,0,1-.18,0,.6.6,0,0,0-.37-.07c-.24,0-.49,0-.73,0a2.33,2.33,0,0,1-.44-.1A1.85,1.85,0,0,0,9.14,74a.75.75,0,0,1-.36-.07,1.65,1.65,0,0,0-.59-.07.39.39,0,0,1-.27-.08c-.12-.1-.28,0-.42-.08a3.73,3.73,0,0,1-.93-.23l-.05,0c-.28,0-.52-.17-.8-.18a.25.25,0,0,1-.2-.07.3.3,0,0,0-.2-.08,1.77,1.77,0,0,1-.64-.16q-.27-.09-.54-.21a6.62,6.62,0,0,0-.62-.24c-.17-.07-.33-.15-.5-.21s-.54-.3-.85-.39a.31.31,0,0,1-.23-.29s0-.06,0-.08c-.21-.23-.12-.55-.26-.81,0,0,0-.1,0-.15-.1-.36-.16-.73-.26-1.08,0-.1,0-.2,0-.3s0-.24-.11-.31,0,0,0-.07a3.66,3.66,0,0,0-.13-.87c-.07-.21,0-.45-.14-.65a.34.34,0,0,1,0-.18c0-.5-.16-1-.16-1.5a3,3,0,0,0-.11-.66,4.31,4.31,0,0,1-.07-1c0-.08,0-.15.13-.14.26,0,.49-.09.74-.1s.28.06.34.26a2,2,0,0,0,.3.67c.06.09,0,.2.09.3.23.45.43.91.67,1.35.11.19.22.38.34.57s.37.51.54.77a6,6,0,0,0,.66.85l.26.31a6.16,6.16,0,0,0,.93.91,4.07,4.07,0,0,1,.59.51,1.25,1.25,0,0,0,.3.21c.24.16.48.34.74.49a2.79,2.79,0,0,1,.62.38c.08.08.21.08.31.14a2.58,2.58,0,0,0,.7.31,3.72,3.72,0,0,1,.58.24,3.11,3.11,0,0,1,.65.22,1.31,1.31,0,0,0,.49.12,5.55,5.55,0,0,0,1,.21h.1a6.24,6.24,0,0,0,1.92.19,1.39,1.39,0,0,1,.4.06.83.83,0,0,0,.58,0,1.06,1.06,0,0,1,.39-.06c.27,0,.53,0,.79,0,.46,0,.87-.2,1.32-.2a.31.31,0,0,0,.2-.07.56.56,0,0,1,.18-.07,3.64,3.64,0,0,0,.91-.26l.51-.2c.22-.07.42-.22.64-.31.05-.17.23-.15.34-.22.46-.26.83-.63,1.26-.93.08-.29.41-.39.5-.68,0-.08.11-.13.16-.19a4.63,4.63,0,0,0,.31-.58,8.75,8.75,0,0,0,.3-.86,5.17,5.17,0,0,0,.1-1.75c0-.12-.12-.21-.12-.33a2.44,2.44,0,0,0-.14-.65,3.55,3.55,0,0,0-.21-.5,5,5,0,0,0-.54-.89,3.23,3.23,0,0,0-.68-.79l-.06-.06c-.08-.2-.27-.3-.41-.44a9.08,9.08,0,0,0-1.13-.92c-.25-.18-.52-.33-.77-.5a7.12,7.12,0,0,0-.67-.36c-.4-.19-.8-.37-1.18-.59a10.55,10.55,0,0,0-1.09-.5,3,3,0,0,0-.87-.36c-.1-.14-.28-.13-.41-.22s-.06-.05-.09-.05a2.52,2.52,0,0,1-.69-.31,1.14,1.14,0,0,0-.31-.13c-.32-.07-.55-.33-.88-.36-.34-.25-.78-.31-1.13-.55a2.67,2.67,0,0,0-.67-.29c-.19-.06-.33-.2-.51-.26s-.48-.3-.75-.38a.11.11,0,0,1-.08,0,4.35,4.35,0,0,0-.74-.46c-.31-.18-.59-.41-.87-.61s-.48-.36-.73-.52a2.84,2.84,0,0,1-.25-.23,9.2,9.2,0,0,1-.84-.81A7.29,7.29,0,0,1,5,53.44a9,9,0,0,1-.66-1.13c-.12-.25-.16-.53-.29-.76s-.06-.5-.24-.69c0,0,0-.1,0-.16,0-.22,0-.45,0-.67a.49.49,0,0,0-.05-.34.21.21,0,0,1,0-.19,2,2,0,0,0,.07-.69c0-.22,0-.45.13-.64s0-.16,0-.24,0-.26.11-.37,0-.24.09-.36l.36-.78a8.33,8.33,0,0,1,.55-.9c.08-.13.19-.24.27-.37a1.57,1.57,0,0,1,.37-.4c.27-.24.49-.53.78-.75s.43-.37.66-.55a5.11,5.11,0,0,1,.48-.33c.23-.15.48-.27.7-.43s.53-.24.76-.44c.07-.06.18-.06.27-.1a9.22,9.22,0,0,1,.91-.39l.53-.19a.87.87,0,0,1,.26-.08.27.27,0,0,0,.21-.09s0,0,.06,0c.26,0,.48-.15.73-.17a.36.36,0,0,0,.27-.08.13.13,0,0,1,.07,0c.36,0,.67-.21,1-.2a2.77,2.77,0,0,0,.5-.1c.31,0,.63,0,.94-.07a.68.68,0,0,0,.34-.08s.15,0,.23,0c.88,0,1.75-.06,2.63,0l1.46,0h.08a7.72,7.72,0,0,0,1.51.2,6.7,6.7,0,0,1,.8.11,3.23,3.23,0,0,0,.81.16c.22.22.57.05.79.26a2.26,2.26,0,0,1,.8.21,1.49,1.49,0,0,1,.69.23,1.2,1.2,0,0,0,.43.13c.35.08.65.26,1,.35a4.21,4.21,0,0,1,.73.31c.06,0,.05.09.05.14a5.58,5.58,0,0,1-.12,1,3.34,3.34,0,0,0-.06.78c0,.12,0,.25-.11.34s0,.1,0,.15c0,.32,0,.63,0,1a.32.32,0,0,1-.06.25.42.42,0,0,0,0,.27c0,.54,0,1.08,0,1.62a.44.44,0,0,1-.1.35c-.06.06,0,.14,0,.21v.84c0,.28,0,.29-.28.29h-.62a.28.28,0,0,1-.3-.25.89.89,0,0,0-.15-.53.22.22,0,0,1,0-.08c0-.32-.17-.61-.18-.93,0-.13-.13-.21-.16-.35a1.43,1.43,0,0,0-.13-.46c-.16-.25-.19-.56-.39-.79a1.73,1.73,0,0,1-.14-.31,9.2,9.2,0,0,0-.61-1c-.19-.28-.43-.5-.62-.76a3.3,3.3,0,0,0-.55-.51c-.22-.2-.45-.38-.68-.57a1.78,1.78,0,0,0-.3-.17,7.85,7.85,0,0,0-1.2-.59,3.73,3.73,0,0,0-.76-.23,2.62,2.62,0,0,1-.62-.12,5.22,5.22,0,0,0-1.1-.16,8.82,8.82,0,0,0-1.45-.08.87.87,0,0,0-.42.07.49.49,0,0,1-.24,0c-.24,0-.47,0-.7,0s-.2,0-.27.09a.17.17,0,0,1-.1,0c-.31,0-.58.15-.87.15-.13,0-.2.12-.31.14s-.26.09-.38.12a6.56,6.56,0,0,0-.76.35,2.49,2.49,0,0,0-.48.26,5.05,5.05,0,0,1-.75.53,1.7,1.7,0,0,0-.34.32,7.4,7.4,0,0,0-.55.57,8.69,8.69,0,0,0-.55.88c-.11.2-.09.45-.27.62,0,0,0,.07,0,.1,0,.22-.1.43-.1.64a6.4,6.4,0,0,0,.05,1.69c.08.37.28.68.37,1,0,.08.1.12.15.18a5.87,5.87,0,0,1,.39.58c.14.19.31.37.45.56a5.06,5.06,0,0,0,.71.68,4.11,4.11,0,0,0,.74.58c.26.15.48.36.75.49s.4.25.62.35a5.55,5.55,0,0,1,.6.29c.34.21.71.33,1.06.51a6.06,6.06,0,0,0,.86.38c.14.05.27.17.42.21a3.12,3.12,0,0,1,.49.23c.14,0,.25.14.39.19a7.85,7.85,0,0,1,.88.4c.29.15.6.25.88.42a.8.8,0,0,0,.41.17c.17,0,.29.15.45.21a5.64,5.64,0,0,1,.9.41c.28.16.58.23.85.41a1.8,1.8,0,0,0,.75.32c.12,0,.14.15.25.18a4.39,4.39,0,0,1,.86.45,11,11,0,0,1,1.08.69,8,8,0,0,1,.86.64c.19.19.43.3.61.49a6.79,6.79,0,0,1,.7.72,11.44,11.44,0,0,1,.72,1l.5.88a2.61,2.61,0,0,1,.25.71s0,.08,0,.11c.18.17.12.4.17.6a9.65,9.65,0,0,1,.12,2.34,3.35,3.35,0,0,1-.18.89c-.08.31-.18.63-.29.93a1.46,1.46,0,0,1-.16.3A9.4,9.4,0,0,1,27,69.26a8.08,8.08,0,0,1-1,1.08,9,9,0,0,1-1.14.9,6.65,6.65,0,0,1-.76.5,2.33,2.33,0,0,0-.58.32c-.21.18-.48.21-.68.38s-.27.09-.4.18-.47.17-.69.32a2.13,2.13,0,0,1-.3.09c-.3.13-.61.22-.92.32s-.36,0-.5.17l-.05,0c-.29,0-.53.17-.82.16s-.3.16-.5.14a1.05,1.05,0,0,0-.52.1,1.54,1.54,0,0,1-.43,0,1.16,1.16,0,0,0-.51.1,1.07,1.07,0,0,1-.51.06c-.56,0-1.12.13-1.68.12Z"/><path d="M84.26,79.32A8.21,8.21,0,0,1,85,78.9a2.81,2.81,0,0,0,.55-.34c.11-.09.23-.11.34-.19s.53-.36.79-.54a11.6,11.6,0,0,0,1.11-1,9,9,0,0,0,.89-1.07,5.49,5.49,0,0,0,.37-.63c.15-.26.21-.56.37-.81a.28.28,0,0,0,.06-.18s0-.1,0-.13c.16-.2.12-.46.2-.68a2.77,2.77,0,0,0,.09-.47c0-.15,0-.31.12-.43s0-.1,0-.15c0-.26,0-.51,0-.76,0-.05,0-.13,0-.16s.1-.39.1-.59c0-5.26,0-10.51,0-15.76,0-.29,0-.58,0-.86a.34.34,0,0,0-.06-.24c-.06-.06,0-.15-.06-.22a.76.76,0,0,0-.13-.48c-.1-.1-.07-.28-.13-.42a2.83,2.83,0,0,0-.77-1,2.47,2.47,0,0,0-.78-.43l-.79-.27a2.71,2.71,0,0,0-.4,0,.78.78,0,0,1-.22,0,2.28,2.28,0,0,0-1.13-.14c-.44,0-.49-.06-.46-.48,0-.2,0-.24.24-.25h.81a1.78,1.78,0,0,1,.72.08.55.55,0,0,0,.26,0h8.1a.67.67,0,0,0,.39-.07.38.38,0,0,1,.19,0h3.46a.38.38,0,0,1,.21,0,.5.5,0,0,0,.31.06h5a.49.49,0,0,0,.21,0,1.49,1.49,0,0,1,.66-.08h3.06a.23.23,0,0,1,.15.06.57.57,0,0,1,0,.49c0,.14-.15.17-.27.17l-.79,0a.47.47,0,0,0-.32.08c-.14.1-.32.06-.48.07a5.07,5.07,0,0,1-.76.14c-.12.15-.32.15-.48.22s-.33.18-.5.25a1.15,1.15,0,0,0-.52.5,2.22,2.22,0,0,0-.29.55s0,0,0,.08a3.65,3.65,0,0,1-.23.92,6.43,6.43,0,0,0-.11,1.63c0,4.53,0,9.06,0,13.59a2.51,2.51,0,0,0,0,.78,5,5,0,0,0,.24,1.07,2,2,0,0,1,.14.45,1.58,1.58,0,0,0,.43.67,4.12,4.12,0,0,0,.87.58c.2.12.43.11.61.24s.16,0,.24,0,.31,0,.43.12.1,0,.16,0a3.89,3.89,0,0,1,.59,0,5.53,5.53,0,0,0,.9.11c.1,0,.18.06.06.17s0,.15,0,.23,0,.22-.21.22c-.39,0-.79,0-1.19,0l-.84,0H97.72c-.55,0-1.11,0-1.67,0-.41,0-.49-.11-.4-.51,0-.06,0-.1.1-.1l.27,0a2,2,0,0,0,.42-.07,2.25,2.25,0,0,1,.64,0c.1,0,.2,0,.27-.09a.13.13,0,0,1,.1,0,2.71,2.71,0,0,0,.89-.18,2.34,2.34,0,0,0,.66-.31,3,3,0,0,0,.59-.41,3.53,3.53,0,0,0,.24-.34,2.84,2.84,0,0,0,.33-.85c.09-.28.08-.57.16-.83a4.54,4.54,0,0,0,.12-1.51q0-6.56,0-13.1c0-.31,0-.62,0-.92,0,0,0-.08,0-.11a1.25,1.25,0,0,1-.12-.63.52.52,0,0,0-.12-.39c-.1-.11-.07-.29-.11-.43a4.42,4.42,0,0,0-.39-.75c-.08-.19-.31-.26-.47-.38a3.45,3.45,0,0,0-1-.43,3.06,3.06,0,0,0-1.64-.15,3.5,3.5,0,0,0-.58.12l-.49.19a1.28,1.28,0,0,1-.33.11c-.12,0-.15.13-.26.17a.8.8,0,0,0-.42.3,6.33,6.33,0,0,0-.39.61,3.17,3.17,0,0,1-.19.42,1.4,1.4,0,0,0-.1.39c0,.13,0,.27-.11.37s0,.12,0,.18c0,.28,0,.56,0,.84a1,1,0,0,1-.08.55c0,.07,0,.19,0,.29V70.07c0,.4,0,.79,0,1.19,0,0,0,.09,0,.11-.22.26-.09.58-.14.88s0,.34-.11.48a.11.11,0,0,0,0,.08,1.87,1.87,0,0,1-.2.85,2.82,2.82,0,0,1-.37.81,1,1,0,0,0-.16.35c-.09.23-.29.39-.37.63a1.11,1.11,0,0,1-.25.29l-.82.8c-.15.15-.32.25-.46.41a4.58,4.58,0,0,1-.43.34c-.17.15-.4.21-.55.39s-.18.08-.26.14a6.79,6.79,0,0,1-1.08.61,2.29,2.29,0,0,1-.82.35c-.11,0-.15.13-.27.16a4.66,4.66,0,0,0-.92.4c-.13.07-.31,0-.42.15s-.45.2-.7.2a.55.55,0,0,0-.25.1.32.32,0,0,1-.45-.14C84.41,79.54,84.39,79.39,84.26,79.32Z"/><path class="cls-1" d="M85.25,76.47a.44.44,0,0,1-.19.23c-.34.19-.67.41-1,.62A12.42,12.42,0,0,0,83,78c-.16.13-.38.19-.56.33a.64.64,0,0,1-.28.05H.11s-.11,0-.11-.09,0-.07.08-.09A7.52,7.52,0,0,0,1,77.66c.29-.16.57-.33.85-.52s.61-.34.89-.56a.85.85,0,0,1,.48-.15H84.85A1,1,0,0,1,85.25,76.47Z"/><path d="M72.41,23.82h-.94c-.26,0-.26,0-.26-.26,0-.45,0-.9,0-1.35a.57.57,0,0,0-.07-.34c-.06-.07,0-.15,0-.23a.92.92,0,0,0-.12-.51.2.2,0,0,1,0-.11c0-.3-.15-.56-.16-.86a.17.17,0,0,0-.06-.14.23.23,0,0,1-.08-.14c0-.23-.14-.4-.18-.62s-.13-.24-.18-.37c-.11-.29-.25-.56-.38-.83a1,1,0,0,0-.07-.15,4.9,4.9,0,0,1-.38-.62c-.15-.24-.3-.47-.47-.7l-.72-.92c-.12-.15-.28-.26-.39-.41-.24-.35-.63-.55-.9-.88-.07-.1-.22-.14-.31-.23a6.52,6.52,0,0,0-1.3-.92,11.52,11.52,0,0,0-1.25-.67l-.77-.31c-.3-.13-.63-.16-.91-.3s-.59-.09-.86-.27a.73.73,0,0,0-.34,0,.91.91,0,0,1-.36-.09,1.63,1.63,0,0,0-.54-.05c-.13,0-.27,0-.4,0a.29.29,0,0,1-.25-.08c0-.07-.15-.05-.23-.05h-1c-.07,0-.15,0-.19,0s-.31.11-.48.11a2.44,2.44,0,0,0-.67,0c-.36.12-.76.05-1.09.24,0,0,0,0,0,0a2,2,0,0,0-.78.2,2.17,2.17,0,0,0-.62.21c-.14.1-.36.1-.52.2s-.6.18-.83.41c-.17,0-.29.13-.41.2s-.41.24-.6.37-.34.25-.52.35a8.27,8.27,0,0,0-.66.51,16.38,16.38,0,0,0-1.35,1.29,4.43,4.43,0,0,0-.51.62c-.17.22-.34.44-.5.67a3,3,0,0,0-.22.39c-.1.18-.22.36-.33.53S48,17.91,48,18a6.55,6.55,0,0,1-.42.78s0,.14-.05.2c-.1.27-.2.54-.32.8a.92.92,0,0,0-.1.36.31.31,0,0,1-.07.2.21.21,0,0,0-.07.14c0,.32-.15.61-.16.92,0,.11,0,.23-.11.32s0,.12,0,.18c0,.21,0,.42,0,.63a.29.29,0,0,1,0,.13c-.18.29-.09.61-.11.92s0,.26-.27.26h-2a.11.11,0,0,1-.11-.12s0-.08,0-.11a2,2,0,0,0,.09-.8c0-.41,0-.82.09-1.23,0-.24.09-.48.1-.72a.25.25,0,0,1,.06-.17s.07-.07.07-.12c0-.27.14-.51.16-.78a.53.53,0,0,1,.05-.18,3.47,3.47,0,0,0,.24-.73c.06-.19.15-.37.22-.56s.26-.64.4-.95.34-.61.52-.92.32-.54.51-.8.26-.37.38-.56.35-.41.5-.63a7.94,7.94,0,0,1,.87-1L49,12.8a1.09,1.09,0,0,1,.29-.23,2.65,2.65,0,0,0,.42-.33c.33-.26.65-.52,1-.75s.66-.4,1-.59.67-.34,1-.52A5.13,5.13,0,0,1,53.6,10a3.36,3.36,0,0,0,.67-.24.41.41,0,0,1,.18,0c.09,0,.2,0,.26-.1a.16.16,0,0,1,.1-.05,4.67,4.67,0,0,0,.5-.14,5.39,5.39,0,0,1,.8-.16,1,1,0,0,0,.51-.11c.11-.08.3,0,.45-.05a21.76,21.76,0,0,1,2.68-.06c.42,0,.84,0,1.26.08.3.21.69.07,1,.23a.49.49,0,0,0,.21,0,1.14,1.14,0,0,1,.46.13,1.26,1.26,0,0,0,.46.16c.26,0,.48.15.72.2s.3.16.47.2c.34.07.59.34.94.39s.49.23.73.39.52.32.78.48a8.43,8.43,0,0,1,.93.63c.24.2.49.37.71.58a2.92,2.92,0,0,0,.61.49c.1.06.17.19.27.28s.31.33.49.48.09.19.18.28a12,12,0,0,1,1.17,1.49c.19.25.33.55.5.81a5.89,5.89,0,0,1,.54,1,4,4,0,0,1,.37.9c.21.14.17.4.23.6a7,7,0,0,0,.24.69c.09.24.06.52.23.74a0,0,0,0,1,0,0c0,.31.14.59.16.9a3.07,3.07,0,0,0,.14.9.18.18,0,0,1,0,.1c0,.45,0,.9,0,1.35,0,.24,0,.25-.27.25Z"/><path d="M58.63,13a13.61,13.61,0,0,1,1.43,0s.11,0,.13,0,.34.12.51.12.59.15.9.15c.19.17.46.1.66.25l.08,0c.14,0,.29,0,.41.15s.19.07.29.11c.38.15.73.36,1.09.54a7.43,7.43,0,0,1,1.33.87,3.16,3.16,0,0,1,.53.45,4.65,4.65,0,0,0,.53.45c.07.07.12.15.19.22.28.33.58.66.85,1s.33.52.5.77a8.72,8.72,0,0,1,.54,1A3.54,3.54,0,0,1,69,20a2.32,2.32,0,0,0,.18.46c.12.24.05.54.25.75a.13.13,0,0,1,0,.06,8.52,8.52,0,0,1,.15,1.13.27.27,0,0,0,0,.16c.22.35.06.72.1,1.08,0,.11-.07.16-.16.18h-2c-.2,0-.2,0-.21-.22s0-.47,0-.71a.94.94,0,0,0-.1-.51,1.17,1.17,0,0,1,0-.43c0-.1,0-.21-.1-.29a.29.29,0,0,1,0-.13,5.63,5.63,0,0,0-.39-1.18,5.71,5.71,0,0,0-.67-1.24,3.68,3.68,0,0,0-.57-.76c-.22-.19-.39-.44-.6-.64a8.33,8.33,0,0,0-1-.81l-.69-.42a5.46,5.46,0,0,0-.75-.41,4.17,4.17,0,0,0-.58-.24c-.23-.07-.48-.06-.67-.24,0,0-.11,0-.16,0a2.28,2.28,0,0,1-.52-.1,2.81,2.81,0,0,0-.65-.06H59.4s-.13,0-.15,0c-.13-.18-.31-.1-.47-.11a.13.13,0,0,0-.11,0c-.17.19-.4.1-.61.12l-.65,0a.27.27,0,0,0-.17.06.47.47,0,0,1-.28.07,1.07,1.07,0,0,0-.41.12,2.74,2.74,0,0,1-.53.15,9.29,9.29,0,0,0-.92.37c-.3.13-.54.36-.82.51a8.82,8.82,0,0,0-1.32,1c-.1.08-.21.13-.24.27s-.09.11-.14.16a4.07,4.07,0,0,0-.69.86,5.69,5.69,0,0,0-.64,1.13c-.1.25-.2.52-.32.76s-.09.44-.22.62,0,.14,0,.22a.69.69,0,0,1-.12.43s0,.12,0,.18l0,.73c0,.07,0,.15,0,.21a.51.51,0,0,0-.08.36c0,.1,0,.16-.15.16H48.28c-.12,0-.16-.06-.15-.17a9.72,9.72,0,0,1,0-1.21,2.58,2.58,0,0,1,.12-.76c.15-.26.06-.57.23-.81a.11.11,0,0,0,0-.08,5.05,5.05,0,0,1,.27-.86,4.12,4.12,0,0,1,.37-.83,6.82,6.82,0,0,1,.6-1.09l.74-1c.18-.25.42-.45.62-.69a7.4,7.4,0,0,1,.57-.55,7.29,7.29,0,0,1,.81-.66c.3-.21.6-.42.92-.6s.62-.3.91-.48a7.08,7.08,0,0,1,.65-.28c.2-.12.45-.1.63-.25s.13,0,.19,0,.21,0,.29-.1a.18.18,0,0,1,.1,0c.27,0,.51-.13.78-.14s.38,0,.54-.13.08,0,.13,0C58,13.05,58.3,13,58.63,13Z"/><path d="M94,23.82h-.92c-.28,0-.28,0-.3-.27s0-.26,0-.38a.39.39,0,0,0,0-.16c-.18-.37-.13-.79-.28-1.16a6.77,6.77,0,0,1-.22-.77,6,6,0,0,0-.24-.67,1.77,1.77,0,0,0-.24-.55,1.66,1.66,0,0,1-.15-.33c-.14-.29-.31-.55-.45-.83a9.27,9.27,0,0,0-.8-1.2,9.06,9.06,0,0,0-1-1.16c-.24-.22-.46-.47-.7-.69l-.5-.41a9,9,0,0,0-1-.67c-.39-.26-.8-.47-1.19-.72,0,0-.07-.06-.12-.06-.23,0-.38-.18-.58-.24s-.46-.2-.71-.28-.44,0-.61-.22-.1,0-.15,0a.68.68,0,0,1-.39-.11c-.07-.05-.15,0-.23,0a.94.94,0,0,1-.54-.13c-.1-.08-.27,0-.4,0a15.33,15.33,0,0,0-2.71-.11,1.34,1.34,0,0,0-.52.07,1.91,1.91,0,0,1-.59.05c-.12,0-.24,0-.33.09a.08.08,0,0,1-.07,0,6.5,6.5,0,0,0-1,.18h-.08c-.17.15-.39.14-.59.22,0,0-.06,0-.09,0-.24,0-.4.16-.61.22a6.1,6.1,0,0,0-.87.39,2.44,2.44,0,0,0-.43.28c-.1.07-.21.08-.31.14s-.4.28-.61.39a1.78,1.78,0,0,0-.53.38c-.05.07-.13.06-.19.08s-.1-.07-.14-.12A11.3,11.3,0,0,1,71.94,14a.63.63,0,0,0-.17-.19c-.15-.08-.15-.25-.28-.35s0-.18.07-.25a3.3,3.3,0,0,0,.43-.3c.18-.16.44-.22.58-.43.35-.08.59-.37.92-.49a1,1,0,0,0,.42-.24c.08-.09.21-.1.31-.14a3.14,3.14,0,0,1,.87-.36c.16,0,.26-.21.44-.17.19-.16.48-.07.65-.27h.06c.28,0,.52-.18.81-.15h0c.19-.17.44-.09.65-.16s.69-.07,1-.15A10,10,0,0,1,81,10.16a3.46,3.46,0,0,1,.91.06c.34.08.68,0,1,.14a4.34,4.34,0,0,0,.79.13c.22.2.52.15.78.22s.48.18.73.24a1.18,1.18,0,0,1,.6.23c.09.08.24.08.35.12a8.5,8.5,0,0,1,.81.38,1,1,0,0,1,.42.24c.08.1.21.06.32.12s.44.27.64.41a2.78,2.78,0,0,1,.62.41,5.84,5.84,0,0,0,.56.42c.28.25.59.45.85.72s.44.42.66.62.21.25.33.37a3.32,3.32,0,0,1,.37.38c.16.26.39.46.57.71s.41.6.61.9a5.51,5.51,0,0,0,.57.88.79.79,0,0,1,.13.28A3.32,3.32,0,0,1,94,19c.24.25.21.61.4.88a1.21,1.21,0,0,1,.12.41,3.74,3.74,0,0,1,.23.74,3.32,3.32,0,0,1,.13.7c.23.37.12.82.26,1.21a4.48,4.48,0,0,1,0,.73c0,.11-.08.12-.17.12H94Z"/><path d="M80.48,14.21c.48,0,.93,0,1.38,0a.79.79,0,0,1,.37.07c.13.08.3,0,.45.06s.18,0,.24.09a.15.15,0,0,0,.09,0c.28,0,.52.15.78.16a.2.2,0,0,1,.11,0c.23.18.54.17.78.31a5.39,5.39,0,0,1,.76.38c.1.08.26.1.38.18.39.27.81.5,1.18.8a3.63,3.63,0,0,1,.75.66c0,.06.09.13.16.14a.53.53,0,0,1,.3.25c.2.34.54.55.76.88a5.68,5.68,0,0,0,.67.88c0,.25.25.41.33.65s.24.44.34.68a9.68,9.68,0,0,1,.41,1.06c.06.19.11.4.19.59a1.17,1.17,0,0,1,.07.25c0,.15,0,.29.11.43s0,.24,0,.36a1.12,1.12,0,0,0,.07.48c0,.09,0,.14-.1.15h-2c-.22,0-.18,0-.25-.21s-.11-.65-.24-.95a.46.46,0,0,1-.05-.23.39.39,0,0,0-.1-.25,1.26,1.26,0,0,1-.16-.46c-.07-.22-.21-.39-.27-.6a6.66,6.66,0,0,0-.38-.69,3.31,3.31,0,0,0-.35-.51c-.18-.25-.39-.48-.58-.72a2.43,2.43,0,0,0-.52-.49l-.08-.07A5.88,5.88,0,0,0,85,17.76a8,8,0,0,0-.75-.43,4.71,4.71,0,0,0-.71-.27c-.13,0-.25-.12-.39-.16a5.12,5.12,0,0,1-.7-.18,5.59,5.59,0,0,0-.88-.15,7.43,7.43,0,0,0-1.63-.08,1,1,0,0,0-.42.06,2.67,2.67,0,0,1-.56.06c-.12,0-.24,0-.32.1s0,0-.07,0a3,3,0,0,0-.78.18,4.29,4.29,0,0,0-.5.19,5.22,5.22,0,0,0-.83.39,9.49,9.49,0,0,0-1,.63,9.33,9.33,0,0,0-.77.64c-.12.12-.2.12-.28,0a.28.28,0,0,1,0-.13.7.7,0,0,0-.12-.32,1.9,1.9,0,0,1-.14-.48,2.26,2.26,0,0,0-.22-.47c-.09-.17-.1-.38-.24-.53s0-.13.06-.21a5.34,5.34,0,0,1,.65-.5c.22-.13.42-.28.63-.41a9.75,9.75,0,0,1,.9-.49,3.9,3.9,0,0,1,1-.38c.07,0,.13,0,.16-.09s.13-.07.2-.08.21-.06.3-.07c.31,0,.58-.21.88-.21s.49-.13.76-.14C79.61,14.21,80.06,14.23,80.48,14.21Z"/><path d="M52.93,23.82h-1c-.2,0-.24,0-.2-.22a4.73,4.73,0,0,1,.12-.91,1.09,1.09,0,0,0,0-.32c0-.13,0-.27.11-.37a.18.18,0,0,0,0-.11,1.73,1.73,0,0,1,.25-.71c.08-.13.1-.31.18-.46s.25-.53.41-.78.3-.41.44-.62a5.66,5.66,0,0,1,.7-.77,7.63,7.63,0,0,1,1.09-.88,5.21,5.21,0,0,1,1-.53c.21-.08.42-.18.64-.24s.57-.08.81-.18a2.92,2.92,0,0,1,.92-.13,7.08,7.08,0,0,1,.92,0h.4c.14,0,.28,0,.38.1a.11.11,0,0,0,.08,0,3.08,3.08,0,0,1,.85.19c.18,0,.33.16.51.2a3,3,0,0,1,.8.4,2.46,2.46,0,0,1,.58.39c.15.15.36.25.53.39s.39.43.61.62a3.19,3.19,0,0,1,.56.71,6.82,6.82,0,0,1,.54.91,7.28,7.28,0,0,0,.4.85,1.77,1.77,0,0,1,.12.41c.06.22.11.46.16.69A4.88,4.88,0,0,1,66,23.58c0,.22,0,.24-.25.24H63.92c-.12,0-.17,0-.23-.16a1.42,1.42,0,0,1-.12-.67.75.75,0,0,0-.13-.47c-.1-.1-.06-.28-.13-.43A6.3,6.3,0,0,0,63,21.4c-.12-.21-.26-.42-.4-.62a5.17,5.17,0,0,0-.42-.51,3.48,3.48,0,0,0-.7-.51,3.59,3.59,0,0,0-.64-.35,7.55,7.55,0,0,0-.84-.29,6,6,0,0,0-1.79-.07,1.35,1.35,0,0,0-.82.23l-.08,0a1.64,1.64,0,0,0-.73.31,4.42,4.42,0,0,0-.67.46,5.17,5.17,0,0,0-.76.79,8.35,8.35,0,0,0-.47.74,3.3,3.3,0,0,0-.26.64c-.06.24-.08.5-.16.72a1.56,1.56,0,0,0-.11.7c0,.13-.07.16-.19.16Z"/><path d="M33.13,23.82h-1c-.22,0-.22,0-.22-.21A1.62,1.62,0,0,1,32,23a.74.74,0,0,0,0-.26.72.72,0,0,1,.11-.41.42.42,0,0,0,.06-.21.31.31,0,0,1,.05-.23.29.29,0,0,0,.08-.25.48.48,0,0,1,.13-.34c.09-.09,0-.22.1-.33a8.1,8.1,0,0,0,.38-.92c0-.12.12-.14.17-.23a6.92,6.92,0,0,1,.8-1.29,2.47,2.47,0,0,1,.51-.61c.24-.52.76-.8,1.1-1.24,0,0,0,0,0,0,.26-.09.4-.32.6-.48a5.79,5.79,0,0,1,.59-.42c.24-.15.48-.3.72-.47a1.28,1.28,0,0,1,.29-.13c.19-.06.33-.2.52-.26a6.8,6.8,0,0,1,1-.37,3.54,3.54,0,0,0,.49-.18c.25-.11.54-.07.77-.24l.07,0a12.5,12.5,0,0,1,3.17-.19,3.53,3.53,0,0,1,.86.06,4.25,4.25,0,0,0,.71.14c.19,0,.23.12.18.31a.43.43,0,0,1-.12.17c-.18.18-.22.46-.44.61-.07.35-.38.57-.48.9s-.2.25-.42.24c-.81,0-1.62,0-2.43,0,0,0-.06,0-.08,0-.17.18-.41.09-.61.15a2.61,2.61,0,0,0-.72.22,1.8,1.8,0,0,1-.41.14,5.33,5.33,0,0,0-.85.37,4.06,4.06,0,0,0-1.09.7s-.08,0-.12.07a6.24,6.24,0,0,0-1.24,1.11,12.06,12.06,0,0,0-.89,1.14,8.21,8.21,0,0,0-.52.91,2.49,2.49,0,0,0-.3.69c0,.26-.2.46-.24.72a2.79,2.79,0,0,1-.14.65,1.81,1.81,0,0,0-.12.51c0,.1-.09.1-.16.1h-1Z"/><path d="M94.43,14.35c.41,0,.83,0,1.24,0,.1,0,.2,0,.27.08a.27.27,0,0,0,.21,0,3.44,3.44,0,0,1,.56,0,5,5,0,0,1,1.07.23.56.56,0,0,0,.23.05.46.46,0,0,1,.26.06.48.48,0,0,0,.28.08.76.76,0,0,1,.28.09,4.22,4.22,0,0,0,.6.2,3.72,3.72,0,0,1,.58.24s.07.06.12.06c.21,0,.37.16.55.24a4.85,4.85,0,0,1,1,.55c.18.14.4.23.57.39a4.24,4.24,0,0,0,.56.38,7.15,7.15,0,0,1,.76.6A9.75,9.75,0,0,1,105,19c.25.26.48.55.71.82a9.44,9.44,0,0,1,.65.91c.13.19.18.44.4.56.08.34.39.57.46.92,0,.11.12.17.17.27a6.45,6.45,0,0,1,.32.83c0,.11.13.19.14.31s0,.2-.14.19h-2a.41.41,0,0,1-.48-.34,6.62,6.62,0,0,0-.48-1,8.7,8.7,0,0,0-.59-.9,7.21,7.21,0,0,0-.59-.75,14.47,14.47,0,0,0-1.17-1.18c-.37-.31-.75-.61-1.13-.9s-.57-.36-.85-.54a6.86,6.86,0,0,1-.75-.42.77.77,0,0,0-.28-.09,4.7,4.7,0,0,0-1-.4,1.67,1.67,0,0,1-.44-.17c-.23-.1-.52,0-.71-.22h0a11,11,0,0,0-2-.2H95a.69.69,0,0,1-.76-.44,4.1,4.1,0,0,0-.26-.41c-.16-.23-.35-.45-.51-.68s-.33-.39-.49-.59a.14.14,0,0,1,.1-.24h.1C93.6,14.38,94,14.38,94.43,14.35Z"/><path d="M86.32,23.82h-.89c-.28,0-.34-.06-.42-.33a3.32,3.32,0,0,0-.42-1c-.15-.25-.33-.47-.48-.71a2.47,2.47,0,0,0-.5-.52,2.24,2.24,0,0,0-.56-.41c-.26-.12-.46-.37-.77-.39-.12,0-.15-.17-.3-.15a.8.8,0,0,1-.33-.08A2.28,2.28,0,0,0,81,20.2c-.15,0-.3,0-.43-.1a.14.14,0,0,0-.2,0c-.09.12-.21.1-.32.09a4.18,4.18,0,0,0-1.11.15,2.48,2.48,0,0,0-.32.17,6.6,6.6,0,0,0-.82.46,3.9,3.9,0,0,0-1,.93,5.85,5.85,0,0,0-.5.79,5,5,0,0,1-.25.52.49.49,0,0,0,0,.21c0,.3-.14.39-.43.39s-.36,0-.36-.37c0-.19,0-.38,0-.57a.63.63,0,0,0-.08-.44c-.06-.06,0-.16,0-.24a2.37,2.37,0,0,0-.06-.8,3.44,3.44,0,0,1-.1-.63.6.6,0,0,1,.2-.58c.32-.3.6-.62.94-.89a7.24,7.24,0,0,1,.65-.48,5.55,5.55,0,0,0,.48-.29c.25-.19.56-.22.82-.39a1.68,1.68,0,0,1,.51-.15,2.46,2.46,0,0,1,1-.2A4,4,0,0,1,81,17.72a3.69,3.69,0,0,1,1.23.2c.21.08.45.09.65.18s.57.23.85.38.43.24.63.38.42.19.53.41a3.27,3.27,0,0,1,.8.73,3.1,3.1,0,0,1,.72.89c.08.18.23.3.31.49s.3.59.43.9a3.52,3.52,0,0,0,.22.62.08.08,0,0,1,0,0,3.12,3.12,0,0,0,.15.62c.07.24,0,.26-.18.26Z"/><path d="M75.85,9.39c-.14,0-.22-.08-.3-.15a9.49,9.49,0,0,0-1.11-.9,9.1,9.1,0,0,0-.93-.59c-.2-.11-.42-.18-.6-.29s-.39-.09-.54-.26-.27-.08-.41-.11a4.22,4.22,0,0,0-1.16-.25c-.06,0-.14,0-.19,0a.51.51,0,0,0-.36-.08H68.84a1,1,0,0,0-.38.07,1.91,1.91,0,0,1-.54.05.46.46,0,0,0-.3.09s-.06,0-.09,0a3,3,0,0,0-.78.19,2.83,2.83,0,0,0-.54.23c-.27.11-.53.26-.81.38A1.24,1.24,0,0,0,65,8c-.14.13-.33.2-.49.32a.38.38,0,0,1-.41,0,1.91,1.91,0,0,0-.68-.21,5.43,5.43,0,0,0-.86-.22c-.22,0-.4-.16-.63-.15s-.11-.17,0-.25.41-.37.62-.54.56-.44.83-.67a4.37,4.37,0,0,1,.78-.47,3.68,3.68,0,0,1,.44-.23,4.3,4.3,0,0,1,.91-.39c.15-.16.4-.11.56-.26a.19.19,0,0,1,.12,0c.23,0,.42-.17.66-.15.22-.18.51-.09.76-.17A5.42,5.42,0,0,1,69,4.46c.2,0,.38-.13.6-.1a1,1,0,0,1,.34.07.67.67,0,0,0,.32,0,4.57,4.57,0,0,1,.83,0c.27.06.54.08.79.14l.61.17a1.58,1.58,0,0,0,.36.09,1.33,1.33,0,0,1,.49.2c.19.12.42.13.61.25.35.2.72.35,1.06.56s.53.33.79.5a5.75,5.75,0,0,1,.9.73c.33.34.66.67,1,1,.13.13.23.29.35.42s.08.38-.16.38c-.42,0-.82.19-1.24.19-.18.13-.41.11-.6.2A.55.55,0,0,1,75.85,9.39Z"/><path class="cls-1" d="M102.26,78.38H92.57a.1.1,0,0,1,0-.18c.29-.11.52-.32.8-.45s.54-.35.83-.5a5.68,5.68,0,0,1,.92-.54c.09,0,.09-.14.2-.16a2.27,2.27,0,0,1,.58-.1h13.27a1.17,1.17,0,0,1,.66.21c.3.21.58.45.89.66s.82.59,1.24.86c.06,0,.08.08.07.13s-.06.07-.1.08h-9.64Z"/><path d="M37,23.82h-.94a.78.78,0,0,1-.22,0c-.12,0-.17-.13-.1-.22a.7.7,0,0,0,.1-.36,1.8,1.8,0,0,1,.26-.8,1.33,1.33,0,0,0,.11-.32,6.67,6.67,0,0,1,.37-.76,7.79,7.79,0,0,1,.7-1,10,10,0,0,1,.85-.87,4.07,4.07,0,0,1,.82-.67c.32-.18.62-.38.95-.54s.63-.25.94-.39a2.43,2.43,0,0,1,.67-.16,2.89,2.89,0,0,0,.87-.15h1.16c.21,0,.23.11.13.29a2.55,2.55,0,0,0-.18.53c0,.1,0,.21-.12.29s0,.11,0,.18a.57.57,0,0,1-.11.33.21.21,0,0,0,0,.07c0,.26-.17.44-.18.69a.17.17,0,0,1-.17.14l-.35,0c-.17,0-.35,0-.49.11a.17.17,0,0,1-.1,0,3.63,3.63,0,0,0-1.2.41c-.24.1-.4.3-.63.42a2.64,2.64,0,0,0-.54.47,4,4,0,0,0-.39.44,2.23,2.23,0,0,0-.47.78c-.16.1-.13.29-.21.42a.63.63,0,0,0-.07.26c0,.16-.15.23-.18.38s-.11,0-.17,0Z"/><path d="M102.32,23.82h-1a.33.33,0,0,1-.29-.14c-.21-.23-.36-.5-.57-.72a3.8,3.8,0,0,0-.65-.62c-.36-.21-.64-.52-1-.7s-.5-.27-.74-.41-.62-.23-.92-.37a1.83,1.83,0,0,0-.66-.21c-.19,0-.29-.09-.3-.27a2.72,2.72,0,0,0-.28-.8.54.54,0,0,1,0-.1c0-.25-.17-.42-.25-.63s-.07-.35-.2-.49,0-.09.06-.09a1.7,1.7,0,0,1,.64,0,2.53,2.53,0,0,0,.36.07c.16,0,.33,0,.46.13s.1,0,.15,0,.31,0,.42.14h.05c.26,0,.45.16.69.19a2,2,0,0,1,.43.19,8.06,8.06,0,0,1,.83.42c.21.11.47.16.6.39a2.36,2.36,0,0,1,.7.46,9,9,0,0,1,.95.81l.45.45.12.14c.28.35.57.7.82,1.07.12.18.22.38.33.56a.39.39,0,0,0,.11.15.22.22,0,0,1,.06.24c0,.09-.13.06-.19.06Z"/><path d="M74.22,9.91a.11.11,0,0,1-.11.12,1.22,1.22,0,0,0-.57.25,4.72,4.72,0,0,1-.45.16c-.25.13-.47.29-.72.42a1.14,1.14,0,0,0-.32.18s-.13,0-.18,0c-.22-.16-.49-.21-.72-.36a.53.53,0,0,0-.18,0,.65.65,0,0,1-.21,0,1.16,1.16,0,0,0-.68-.13.62.62,0,0,1-.26-.06.86.86,0,0,0-.65,0,1.76,1.76,0,0,1-.85.07.77.77,0,0,1-.37-.19,5.87,5.87,0,0,0-.85-.55A8.24,8.24,0,0,0,66,9.11C65.93,9.07,66,9,66,9a.63.63,0,0,1,.34-.24c.33-.09.59-.35.94-.36.23-.19.53-.15.79-.24a3.56,3.56,0,0,1,.8-.08A1.69,1.69,0,0,0,69.31,8a.86.86,0,0,1,.61,0,4.18,4.18,0,0,0,.79.11,3.35,3.35,0,0,1,1,.24,2.16,2.16,0,0,0,.43.14c.28.09.52.25.78.36a2.54,2.54,0,0,1,.51.32,4.75,4.75,0,0,1,.58.42C74.09,9.67,74.21,9.75,74.22,9.91Z"/><path d="M44.31,87.53c.21-.34.41-.67.64-1a11.32,11.32,0,0,1,.71-1.09c0-.24.22-.42.2-.69a.61.61,0,0,0-.56-.58c-.18,0-.24-.11-.33-.22a14.54,14.54,0,0,1,2.65,0c-.09.16-.18.28-.38.24a.37.37,0,0,0-.31.15,7.64,7.64,0,0,0-.74.85,6.81,6.81,0,0,1-.59.82,1.08,1.08,0,0,0-.14.26c-.14.23-.3.44-.44.66a6,6,0,0,0-.6,1,.63.63,0,0,0,0,.19c0,.74,0,1.48,0,2.22a1,1,0,0,0,1,1c.07,0,.18,0,.18.09s-.07.16-.18.15H42.3a.72.72,0,0,1-.21,0,.15.15,0,0,1-.11-.17c0-.07.08-.07.13-.07a.87.87,0,0,0,.71-.29.48.48,0,0,0,.13-.17c0-.25.19-.47.19-.73V88.75a.43.43,0,0,0-.08-.31.25.25,0,0,1-.05-.15,1.49,1.49,0,0,0-.24-.6,6.78,6.78,0,0,0-.5-.77,3.45,3.45,0,0,0-.56-.81c-.1-.1-.13-.28-.22-.4A6.86,6.86,0,0,1,41,85a2.05,2.05,0,0,0-.63-.68.4.4,0,0,0-.25-.09.39.39,0,0,1-.37-.21c0-.09.1-.07.16-.07h3.27c.06,0,.15,0,.17,0a.21.21,0,0,1-.14.21,2.45,2.45,0,0,1-.27,0,.46.46,0,0,0-.39.62,6.28,6.28,0,0,0,.59,1.08c.21.36.47.7.67,1.07.09.17.23.31.32.48S44.23,87.49,44.31,87.53Z"/><path d="M58.89,23.82H56.07c-.28,0-.39-.21-.24-.46a.48.48,0,0,0,.09-.25,1.87,1.87,0,0,1,.24-.71c.1-.23.28-.4.38-.63a.62.62,0,0,1,.3-.3c.31-.17.52-.49.91-.51.12,0,.16-.17.3-.15s.21-.08.3-.09a2.2,2.2,0,0,1,1.11,0s.06.05.09.05c.34,0,.59.22.88.32a1.21,1.21,0,0,1,.41.3,4.12,4.12,0,0,1,.74.88,2.38,2.38,0,0,1,.34,1.4c0,.08,0,.12-.11.12H58.89Z"/><path d="M77.24,87.36c0,.93,0,1.86,0,2.79a1.34,1.34,0,0,0,.2.78.86.86,0,0,0,.76.44c.07,0,.18,0,.18.1s-.08.15-.18.15H75a.17.17,0,0,1-.16-.07c0-.09,0-.17.08-.17a1.08,1.08,0,0,0,.59-.15c.16-.13.36-.24.37-.49.24-.31.13-.67.13-1,0-1.7,0-3.41,0-5.11v-.19c0-.21,0-.24-.23-.25a4.57,4.57,0,0,0-1.11,0,4.38,4.38,0,0,1-.63.12c-.1,0-.14.11-.24.16a1.08,1.08,0,0,0-.51.56,2.54,2.54,0,0,0-.29.78c0,.08,0,.12-.11.12s-.15,0-.14-.13A2.23,2.23,0,0,1,72.8,85a.75.75,0,0,0,0-.3V84c0-.09,0-.14.15-.14H80.1c.46,0,.39,0,.4.39s0,.94,0,1.41v.19a.08.08,0,0,1-.08.09.07.07,0,0,1-.09-.07,3.05,3.05,0,0,0-.17-.51,1.51,1.51,0,0,0-.61-.85,1,1,0,0,0-.66-.23c-.13,0-.22-.08-.33-.1a6.4,6.4,0,0,0-1.16,0,.17.17,0,0,0-.17.17,1.62,1.62,0,0,0,0,.22Z"/><path d="M90.23,91.42a.15.15,0,0,1-.17.1c-.35,0-.67.12-1,.12h-.16c-.21,0-.27-.05-.28-.26,0,0,0-.06,0-.08s0-.18,0-.22-.09.08-.15.11a2.09,2.09,0,0,1-1.38.46,2.91,2.91,0,0,1-.77-.1,2.7,2.7,0,0,1-.4-.25.91.91,0,0,1-.42-.87c0-.83,0-1.66,0-2.49a2.54,2.54,0,0,0-.17-.67c-.05-.14-.24-.19-.39-.24s-.2,0-.29-.1a.29.29,0,0,1,.27-.12H86c.27,0,.3.06.3.33v2.79a4.64,4.64,0,0,0,0,.65.76.76,0,0,0,.49.67,1.33,1.33,0,0,0,1,0,2.32,2.32,0,0,0,.38-.21c.12-.07.11-.18.15-.27a1.7,1.7,0,0,0,.2-.6c.05-.69,0-1.39,0-2.08a2.48,2.48,0,0,0-.1-.71c-.08-.24-.27-.26-.43-.35,0,0,0,0,0,0s-.2,0-.2-.09.13-.13.23-.13h1.16c.25,0,.27,0,.27.29,0,1.13,0,2.26,0,3.38a2,2,0,0,0,.21.66.15.15,0,0,0,.14.07A.47.47,0,0,1,90.23,91.42Z"/><path d="M57.34,91.18c-.22,0-.36.11-.52.21a1.5,1.5,0,0,1-.82.26h-.62A1.43,1.43,0,0,1,54.29,91a3.21,3.21,0,0,1-.18-.71c0-.82,0-1.64,0-2.46a.94.94,0,0,0-.06-.5A.65.65,0,0,0,53.6,87c-.06,0-.13,0-.18,0a.06.06,0,0,1,0-.12.58.58,0,0,1,.26-.06h1.11c.22,0,.24,0,.24.26v3c0,.16,0,.32.11.45s0,.07,0,.1a.67.67,0,0,0,.21.5.89.89,0,0,0,.53.24,1.54,1.54,0,0,0,.7-.09,1.23,1.23,0,0,0,.57-.51.65.65,0,0,0,.09-.38c0-.15,0-.31.1-.44s0-.13,0-.21V88.05a.35.35,0,0,0-.07-.28.32.32,0,0,1-.06-.23.49.49,0,0,0-.46-.5l-.13,0s-.11,0-.11-.09.06-.09.11-.1h1.22c.34,0,.37,0,.38.37v3.16a1.75,1.75,0,0,0,0,.46c.06.23.15.4.42.43a.16.16,0,0,1,.18.12c0,.09,0,.16-.08.16-.37,0-.72.13-1.09.13s-.33,0-.35-.32C57.37,91.28,57.39,91.22,57.34,91.18Z"/><path d="M50.25,91.66a2.34,2.34,0,0,1-1-.16,1,1,0,0,1-.49-.3c-.14-.15-.32-.23-.45-.39a3.55,3.55,0,0,1-.54-1,2.56,2.56,0,0,1-.12-.86s0-.1,0-.13a2,2,0,0,0,.23-.62,3.24,3.24,0,0,1,.71-.89c.17-.19.44-.23.6-.43h0c.28,0,.54-.19.83-.17a2.36,2.36,0,0,0,.46,0,1.47,1.47,0,0,1,.81.18,1.83,1.83,0,0,1,.74.51,4.73,4.73,0,0,0,.44.46.91.91,0,0,1,.18.27,2.37,2.37,0,0,1,.23,1.27,2.51,2.51,0,0,1-.42,1.12,2.57,2.57,0,0,1-.83.78.75.75,0,0,1-.56.22A1.65,1.65,0,0,1,50.25,91.66Zm1.61-2.41a2.75,2.75,0,0,0-.3-1.43c0-.08-.12-.11-.16-.2a1.29,1.29,0,0,0-1-.73,1.06,1.06,0,0,0-.82.22,1.6,1.6,0,0,0-.57.69,1.84,1.84,0,0,0-.23,1c0,.27,0,.54,0,.81s0,.52.16.74c0,.33.32.53.47.81a.15.15,0,0,0,0,.06c.22.1.44.21.67.3a.58.58,0,0,0,.43,0,1.89,1.89,0,0,0,.67-.45,2.05,2.05,0,0,0,.42-.71A2.22,2.22,0,0,0,51.86,89.25Z"/><path d="M90.55,84a.11.11,0,0,1,.12-.07,3.51,3.51,0,0,0,.84-.14,1.44,1.44,0,0,1,.59,0c.08,0,.11,0,.11.12v6.66a1.28,1.28,0,0,0,.07.47.61.61,0,0,0,.49.38c.07,0,.16,0,.15.12a.16.16,0,0,1-.17.14H90.67a.16.16,0,0,1-.13-.16c0-.09.08-.08.14-.09a1.11,1.11,0,0,0,.26-.07c.25-.14.27-.4.34-.63a1.48,1.48,0,0,0,0-.3V85a1.35,1.35,0,0,0-.12-.62c-.07-.14-.15-.23-.29-.24A.53.53,0,0,1,90.55,84Z"/><path d="M80.49,23.82h-2.7c-.12,0-.11,0-.07-.16a3.8,3.8,0,0,1,.4-.68,1.73,1.73,0,0,1,.53-.51l.66-.42,0,0a3.59,3.59,0,0,1,1.75-.13,2.77,2.77,0,0,1,1.14.5,3.48,3.48,0,0,1,.49.44,2,2,0,0,1,.44.64.69.69,0,0,0,0,.13s.14.08.09.17-.13.05-.2.05Z"/><path d="M82.45,89.36c0,.54,0,1,0,1.39a.59.59,0,0,0,.53.61c.06,0,.17,0,.17.09s-.09.14-.17.17H81.05a.53.53,0,0,1-.18,0c-.07,0-.17-.06-.17-.15s.11-.08.17-.09a.59.59,0,0,0,.54-.56s0-.09,0-.11.11-.34.11-.52c0-.71,0-1.43,0-2.14,0-.11,0-.23-.09-.31s0-.08,0-.13a.46.46,0,0,0-.39-.46l-.07,0s-.18,0-.15-.16.13-.06.2-.07a2.52,2.52,0,0,0,.61-.11,1.75,1.75,0,0,1,.51,0c.11,0,.17,0,.17.16s0,.24,0,.35,0,.08,0,.09a.07.07,0,0,0,.09,0,1.39,1.39,0,0,1,.88-.52,1.19,1.19,0,0,1,1,.09.47.47,0,0,1,.06.74.53.53,0,0,1-.47,0,1.64,1.64,0,0,0-.6-.44c-.11,0-.43,0-.49.1a3.12,3.12,0,0,0-.26.48A7.05,7.05,0,0,0,82.45,89.36Z"/><path d="M61,89.62c0,.41,0,.82,0,1.23a.6.6,0,0,0,.46.51h.05c.07,0,.18,0,.17.08s-.09.15-.18.17h-2a.61.61,0,0,1-.19,0,.13.13,0,0,1-.12-.15c0-.09.08-.08.14-.09a.52.52,0,0,0,.54-.31,2.4,2.4,0,0,0,.19-.71V88a.37.37,0,0,0-.08-.3s0-.13,0-.21a.37.37,0,0,0-.34-.36.21.21,0,0,1-.13-.05c0-.06-.17,0-.14-.16s.12-.06.18-.07a3.57,3.57,0,0,0,.64-.11,1.73,1.73,0,0,1,.51,0c.11,0,.15.06.16.17s0,.21,0,.32,0,.1.06.11.08,0,.11-.06.32-.21.45-.36a.73.73,0,0,1,.35-.13,1.28,1.28,0,0,1,1.08.11.45.45,0,0,1,0,.71.56.56,0,0,1-.49,0c-.06-.08-.17-.13-.23-.22s-.31-.18-.47-.27a.14.14,0,0,0-.11,0,.89.89,0,0,0-.5.57A7.28,7.28,0,0,0,61,89.62Z"/><path d="M63.58,90.74c0-.21,0-.43,0-.65,0,0,0-.07.05-.08a.08.08,0,0,1,.09,0s.1.1.1.16a1.23,1.23,0,0,0,.2.52,1.41,1.41,0,0,0,.47.58,1.23,1.23,0,0,0,.48.21.9.9,0,0,0,.86-.45.64.64,0,0,0,0-.77c0-.08,0-.18-.1-.27a1.39,1.39,0,0,0-.42-.31c-.36-.22-.74-.4-1.09-.63a3.12,3.12,0,0,1-.45-.44.46.46,0,0,1-.05-.21.63.63,0,0,0-.11-.35.15.15,0,0,1,0-.2c.14-.18.1-.42.25-.59a1.88,1.88,0,0,1,.49-.44,1.94,1.94,0,0,1,.92-.12.62.62,0,0,1,.23.07.5.5,0,0,0,.56,0c.13-.09.2-.05.21.11,0,.32,0,.63,0,.95a.2.2,0,0,1,0,.13c0,.07-.08.1-.14,0a1.55,1.55,0,0,1-.14-.29,1.3,1.3,0,0,0-.14-.32.71.71,0,0,0-.32-.3c-.14-.06-.28-.15-.43-.2a.41.41,0,0,0-.41.06c-.13.09-.3.15-.34.33a1.18,1.18,0,0,0,0,.67.76.76,0,0,0,.39.4c.34.14.66.33,1,.48a2.13,2.13,0,0,1,.81.65.9.9,0,0,1,.13.4,1.5,1.5,0,0,1-.11,1,1.27,1.27,0,0,1-1.15.78H64.9a1.7,1.7,0,0,1-.76-.21c-.1,0-.18-.07-.26,0l-.06.05c-.14.07-.24,0-.25-.14v-.63Z"/><path d="M41.31,23.82h-1l-.21,0s-.09-.07-.06-.1.09-.24.19-.35.32-.43.5-.63a.71.71,0,0,1,.35-.27c.1,0,.08-.13.17-.16S41.72,22,42,22a.45.45,0,0,0,.17-.08.59.59,0,0,1,.39-.06c.08,0,.16,0,.09.14a.37.37,0,0,0,0,.23c0,.45-.05.9,0,1.35,0,.23,0,.24-.25.24Z"/><path d="M99.34,23.74a.34.34,0,0,1-.29.08h-2c-.21,0-.18,0-.27-.21a3.29,3.29,0,0,1-.11-.93c0-.09,0-.18-.08-.25a.13.13,0,0,1,0-.12c0-.09-.06-.21,0-.28a.25.25,0,0,1,.3,0c.14.15.34.15.5.23a6.94,6.94,0,0,0,.71.38,1.46,1.46,0,0,1,.33.24,7.86,7.86,0,0,1,.85.78Z"/><path d="M98.63,91a.66.66,0,0,1,.38-.67.69.69,0,0,1,.75.19,1,1,0,0,1,.23.38.72.72,0,0,1-.63.78.69.69,0,0,1-.65-.27C98.61,91.25,98.66,91.11,98.63,91Z"/><path d="M68.5,91.65a.5.5,0,0,1-.46-.16.78.78,0,0,1-.27-.5,1.09,1.09,0,0,1,.31-.6c.11-.12.26-.1.4-.1a.51.51,0,0,1,.37.08,1.19,1.19,0,0,1,.34.62c-.09.11,0,.27-.14.38C68.78,91.65,68.78,91.65,68.5,91.65Z"/></svg>